<svg viewBox="0 0 330 200" xmlns="http://www.w3.org/2000/svg"><g><g><g><g><g><line x1="58" y1="178" x2="53" y2="178" style="visibility: inherit;" fill="rgb(0, 0, 0)" stroke="rgb(204, 204, 204)" stroke-width="1px"></line><line x1="58" y1="163.16666666666666" x2="53" y2="163.16666666666666" style="visibility: inherit;" fill="rgb(0, 0, 0)" stroke="rgb(204, 204, 204)" stroke-width="1px"></line><line x1="58" y1="148.33333333333334" x2="53" y2="148.33333333333334" style="visibility: inherit;" fill="rgb(0, 0, 0)" stroke="rgb(204, 204, 204)" stroke-width="1px"></line><line x1="58" y1="133.5" x2="53" y2="133.5" style="visibility: inherit;" fill="rgb(0, 0, 0)" stroke="rgb(204, 204, 204)" stroke-width="1px"></line><line x1="58" y1="118.66666666666667" x2="53" y2="118.66666666666667" style="visibility: inherit;" fill="rgb(0, 0, 0)" stroke="rgb(204, 204, 204)" stroke-width="1px"></line><line x1="58" y1="103.83333333333334" x2="53" y2="103.83333333333334" style="visibility: inherit;" fill="rgb(0, 0, 0)" stroke="rgb(204, 204, 204)" stroke-width="1px"></line><line x1="58" y1="89.00000000000001" x2="53" y2="89.00000000000001" style="visibility: inherit;" fill="rgb(0, 0, 0)" stroke="rgb(204, 204, 204)" stroke-width="1px"></line><line x1="58" y1="74.16666666666669" x2="53" y2="74.16666666666669" style="visibility: inherit;" fill="rgb(0, 0, 0)" stroke="rgb(204, 204, 204)" stroke-width="1px"></line><line x1="58" y1="59.33333333333336" x2="53" y2="59.33333333333336" style="visibility: inherit;" fill="rgb(0, 0, 0)" stroke="rgb(204, 204, 204)" stroke-width="1px"></line><line x1="58" y1="44.50000000000003" x2="53" y2="44.50000000000003" style="visibility: inherit;" fill="rgb(0, 0, 0)" stroke="rgb(204, 204, 204)" stroke-width="1px"></line><line x1="58" y1="29.666666666666686" x2="53" y2="29.666666666666686" style="visibility: inherit;" fill="rgb(0, 0, 0)" stroke="rgb(204, 204, 204)" stroke-width="1px"></line><line x1="58" y1="14.833333333333343" x2="53" y2="14.833333333333343" style="visibility: inherit;" fill="rgb(0, 0, 0)" stroke="rgb(204, 204, 204)" stroke-width="1px"></line><line x1="58" y1="0" x2="53" y2="0" style="visibility: inherit;" fill="rgb(0, 0, 0)" stroke="rgb(204, 204, 204)" stroke-width="1px"></line></g><g transform="translate(48, 0)"><text x="0" y="178" dx="0em" dy="0.3em" style="text-anchor: end; visibility: hidden; font-family: &quot;Helvetica Neue&quot;, sans-serif; font-size: 12px; font-weight: 200;" fill="rgb(50, 49, 63)" stroke="none" stroke-width="1px">-0.1</text><text x="0" y="163.16666666666666" dx="0em" dy="0.3em" style="text-anchor: end; visibility: inherit; font-family: &quot;Helvetica Neue&quot;, sans-serif; font-size: 12px; font-weight: 200;" fill="rgb(50, 49, 63)" stroke="none" stroke-width="1px">0</text><text x="0" y="148.33333333333334" dx="0em" dy="0.3em" style="text-anchor: end; visibility: hidden; font-family: &quot;Helvetica Neue&quot;, sans-serif; font-size: 12px; font-weight: 200;" fill="rgb(50, 49, 63)" stroke="none" stroke-width="1px">0.1</text><text x="0" y="133.5" dx="0em" dy="0.3em" style="text-anchor: end; visibility: inherit; font-family: &quot;Helvetica Neue&quot;, sans-serif; font-size: 12px; font-weight: 200;" fill="rgb(50, 49, 63)" stroke="none" stroke-width="1px">0.2</text><text x="0" y="118.66666666666667" dx="0em" dy="0.3em" style="text-anchor: end; visibility: hidden; font-family: &quot;Helvetica Neue&quot;, sans-serif; font-size: 12px; font-weight: 200;" fill="rgb(50, 49, 63)" stroke="none" stroke-width="1px">0.3</text><text x="0" y="103.83333333333334" dx="0em" dy="0.3em" style="text-anchor: end; visibility: inherit; font-family: &quot;Helvetica Neue&quot;, sans-serif; font-size: 12px; font-weight: 200;" fill="rgb(50, 49, 63)" stroke="none" stroke-width="1px">0.4</text><text x="0" y="89.00000000000001" dx="0em" dy="0.3em" style="text-anchor: end; visibility: hidden; font-family: &quot;Helvetica Neue&quot;, sans-serif; font-size: 12px; font-weight: 200;" fill="rgb(50, 49, 63)" stroke="none" stroke-width="1px">0.5</text><text x="0" y="74.16666666666669" dx="0em" dy="0.3em" style="text-anchor: end; visibility: inherit; font-family: &quot;Helvetica Neue&quot;, sans-serif; font-size: 12px; font-weight: 200;" fill="rgb(50, 49, 63)" stroke="none" stroke-width="1px">0.6</text><text x="0" y="59.33333333333336" dx="0em" dy="0.3em" style="text-anchor: end; visibility: hidden; font-family: &quot;Helvetica Neue&quot;, sans-serif; font-size: 12px; font-weight: 200;" fill="rgb(50, 49, 63)" stroke="none" stroke-width="1px">0.7</text><text x="0" y="44.50000000000003" dx="0em" dy="0.3em" style="text-anchor: end; visibility: inherit; font-family: &quot;Helvetica Neue&quot;, sans-serif; font-size: 12px; font-weight: 200;" fill="rgb(50, 49, 63)" stroke="none" stroke-width="1px">0.8</text><text x="0" y="29.666666666666686" dx="0em" dy="0.3em" style="text-anchor: end; visibility: hidden; font-family: &quot;Helvetica Neue&quot;, sans-serif; font-size: 12px; font-weight: 200;" fill="rgb(50, 49, 63)" stroke="none" stroke-width="1px">0.9</text><text x="0" y="14.833333333333343" dx="0em" dy="0.3em" style="text-anchor: end; visibility: inherit; font-family: &quot;Helvetica Neue&quot;, sans-serif; font-size: 12px; font-weight: 200;" fill="rgb(50, 49, 63)" stroke="none" stroke-width="1px">1</text><text x="0" y="0" dx="0em" dy="0.3em" style="text-anchor: end; visibility: hidden; font-family: &quot;Helvetica Neue&quot;, sans-serif; font-size: 12px; font-weight: 200;" fill="rgb(50, 49, 63)" stroke="none" stroke-width="1px">1.1</text></g><line x1="58" y1="0" x2="58" y2="178" fill="rgb(0, 0, 0)" stroke="rgb(204, 204, 204)" stroke-width="1px"></line></g></g><g transform="translate(58, 0)" clip-path="url(#clip_0)"><clipPath id="clip_0"><rect width="272" height="178"></rect></clipPath><g><g><g><line x1="0" y1="0" x2="0" y2="178" fill="rgb(0, 0, 0)" stroke="rgb(60, 60, 60)" stroke-width="1px" opacity="0.25"></line><line x1="22.666666666666664" y1="0" x2="22.666666666666664" y2="178" fill="rgb(0, 0, 0)" stroke="rgb(60, 60, 60)" stroke-width="1px" opacity="0.25"></line><line x1="45.33333333333333" y1="0" x2="45.33333333333333" y2="178" fill="rgb(0, 0, 0)" stroke="rgb(60, 60, 60)" stroke-width="1px" opacity="0.25"></line><line x1="68" y1="0" x2="68" y2="178" fill="rgb(0, 0, 0)" stroke="rgb(60, 60, 60)" stroke-width="1px" opacity="0.25"></line><line x1="90.66666666666666" y1="0" x2="90.66666666666666" y2="178" fill="rgb(0, 0, 0)" stroke="rgb(60, 60, 60)" stroke-width="1px" opacity="0.25"></line><line x1="113.33333333333334" y1="0" x2="113.33333333333334" y2="178" fill="rgb(0, 0, 0)" stroke="rgb(60, 60, 60)" stroke-width="1px" opacity="0.25"></line><line x1="136" y1="0" x2="136" y2="178" fill="rgb(0, 0, 0)" stroke="rgb(60, 60, 60)" stroke-width="1px" opacity="0.25"></line><line x1="158.66666666666669" y1="0" x2="158.66666666666669" y2="178" fill="rgb(0, 0, 0)" stroke="rgb(60, 60, 60)" stroke-width="1px" opacity="0.25"></line><line x1="181.33333333333331" y1="0" x2="181.33333333333331" y2="178" fill="rgb(0, 0, 0)" stroke="rgb(60, 60, 60)" stroke-width="1px" opacity="0.25"></line><line x1="204" y1="0" x2="204" y2="178" fill="rgb(0, 0, 0)" stroke="rgb(60, 60, 60)" stroke-width="1px" opacity="0.25"></line><line x1="226.66666666666669" y1="0" x2="226.66666666666669" y2="178" fill="rgb(0, 0, 0)" stroke="rgb(60, 60, 60)" stroke-width="1px" opacity="0.25"></line><line x1="249.33333333333331" y1="0" x2="249.33333333333331" y2="178" fill="rgb(0, 0, 0)" stroke="rgb(60, 60, 60)" stroke-width="1px" opacity="0.25"></line><line x1="272" y1="0" x2="272" y2="178" fill="rgb(0, 0, 0)" stroke="rgb(60, 60, 60)" stroke-width="1px" opacity="0.25"></line></g><g><line x1="0" y1="178" x2="272" y2="178" fill="rgb(0, 0, 0)" stroke="rgb(60, 60, 60)" stroke-width="1px" opacity="0.25"></line><line x1="0" y1="163.16666666666666" x2="272" y2="163.16666666666666" fill="rgb(0, 0, 0)" stroke="rgb(60, 60, 60)" stroke-width="1px" opacity="0.25"></line><line x1="0" y1="148.33333333333334" x2="272" y2="148.33333333333334" fill="rgb(0, 0, 0)" stroke="rgb(60, 60, 60)" stroke-width="1px" opacity="0.25"></line><line x1="0" y1="133.5" x2="272" y2="133.5" fill="rgb(0, 0, 0)" stroke="rgb(60, 60, 60)" stroke-width="1px" opacity="0.25"></line><line x1="0" y1="118.66666666666667" x2="272" y2="118.66666666666667" fill="rgb(0, 0, 0)" stroke="rgb(60, 60, 60)" stroke-width="1px" opacity="0.25"></line><line x1="0" y1="103.83333333333334" x2="272" y2="103.83333333333334" fill="rgb(0, 0, 0)" stroke="rgb(60, 60, 60)" stroke-width="1px" opacity="0.25"></line><line x1="0" y1="89.00000000000001" x2="272" y2="89.00000000000001" fill="rgb(0, 0, 0)" stroke="rgb(60, 60, 60)" stroke-width="1px" opacity="0.25"></line><line x1="0" y1="74.16666666666669" x2="272" y2="74.16666666666669" fill="rgb(0, 0, 0)" stroke="rgb(60, 60, 60)" stroke-width="1px" opacity="0.25"></line><line x1="0" y1="59.33333333333336" x2="272" y2="59.33333333333336" fill="rgb(0, 0, 0)" stroke="rgb(60, 60, 60)" stroke-width="1px" opacity="0.25"></line><line x1="0" y1="44.50000000000003" x2="272" y2="44.50000000000003" fill="rgb(0, 0, 0)" stroke="rgb(60, 60, 60)" stroke-width="1px" opacity="0.25"></line><line x1="0" y1="29.666666666666686" x2="272" y2="29.666666666666686" fill="rgb(0, 0, 0)" stroke="rgb(60, 60, 60)" stroke-width="1px" opacity="0.25"></line><line x1="0" y1="14.833333333333343" x2="272" y2="14.833333333333343" fill="rgb(0, 0, 0)" stroke="rgb(60, 60, 60)" stroke-width="1px" opacity="0.25"></line><line x1="0" y1="0" x2="272" y2="0" fill="rgb(0, 0, 0)" stroke="rgb(60, 60, 60)" stroke-width="1px" opacity="0.25"></line></g></g></g><g><g><line x1="0" y1="163.16666666666666" x2="272" y2="163.16666666666666" fill="rgb(0, 0, 0)" stroke="rgb(153, 153, 153)" stroke-width="1.5px"></line></g></g><g><g><line x1="22.666666666666664" y1="0" x2="22.666666666666664" y2="178" fill="rgb(0, 0, 0)" stroke="rgb(153, 153, 153)" stroke-width="1.5px"></line></g></g><g><g><g><g><g><path stroke="rgb(0, 119, 187)" stroke-width="2px" d="M22.666666666666664,139.17415173351765L24.93333333333333,132.75071621810397L27.200000000000003,130.4882338903591L29.46666666666667,130.27407677279894L31.733333333333334,126.45718956426245L34,117.26280645801725L36.266666666666666,109.67373387938223L38.53333333333333,104.52867635717769L40.8,98.68140663767197L43.06666666666666,94.66588792799293L45.33333333333333,90.7408785930575L47.599999999999994,85.3297695793772L49.86666666666666,78.45604795954765L52.13333333333334,70.02807650131265L54.400000000000006,63.96492598790452L56.66666666666667,56.21858563332509L58.93333333333334,49.2426439799936L61.2,53.290747512261845L63.46666666666667,48.0240618606295L65.73333333333333,56.81574423225179L68,56.76959728363225L70.26666666666668,58.0622103148916L72.53333333333333,49.97553967393546L74.80000000000001,53.67397347546843L77.06666666666666,45.005137963612924L79.33333333333334,46.017472287439915L81.6,49.01389339308372L83.86666666666667,43.017352244829965L86.13333333333333,40.30300702869255L88.4,37.50930411776369L90.66666666666666,35.23040637440968L92.93333333333334,33.93684019920383L95.19999999999999,32.68337342879215L97.46666666666667,31.942730582838465L99.73333333333332,32.14401495628985L102,32.13373546693114L104.26666666666668,32.50777082412486L106.53333333333333,33.33426360259807L108.80000000000001,33.19293447286407L111.06666666666666,33.47698067037794L113.33333333333334,33.64678949374786L115.6,33.864287890651184L117.86666666666667,33.75277426894766L120.13333333333333,33.67585414481576L122.4,34.102421064217026L124.66666666666666,34.079816074591974L126.93333333333334,34.03084875628494L129.2,34.22218750408808L131.46666666666667,35.47004230714444L133.73333333333332,35.203746342040574L136,35.69594447416952L138.26666666666665,35.53063226105456L140.53333333333336,35.91111323254384L142.8,36.131854834261276L145.06666666666666,34.93348833447783L147.33333333333331,35.57789388811267L149.60000000000002,35.990845558140876L151.86666666666667,35.96726474588763L154.13333333333333,36.31089055593205L156.39999999999998,36.53910930984455L158.66666666666669,36.779951246777614L160.93333333333334,37.05509627989895L163.2,37.24272875665804L165.46666666666664,37.29301558740448L167.73333333333335,37.345050590083076L170,37.20489782701637L172.26666666666665,37.25077763365135L174.53333333333336,37.18114609221473L176.8,37.38975435912522L179.06666666666666,37.522529958207855L181.33333333333331,37.538668409100865L183.60000000000002,37.33658686584931L185.86666666666667,37.325023797989076L188.13333333333333,37.50939167410547L190.39999999999998,37.539764719429115L192.66666666666669,37.49373664690407L194.93333333333334,37.44415080289056L197.2,37.43150908792026L199.46666666666664,37.457850108806355L201.73333333333335,37.53793844993754L204,37.54921495168912L206.26666666666665,37.569313617047726L208.53333333333336,37.55938613305315L210.8,37.540206511158715L213.06666666666666,37.53300270994842L215.33333333333331,37.525027181071096L217.60000000000002,37.51447376332405L219.86666666666667,37.51224410169357L222.13333333333333,37.496763672230855L224.39999999999998,37.496044456441155L226.66666666666669,37.48013701805209L228.93333333333334,37.48180693051461L231.2,37.45642627275731L233.46666666666664,37.45064044592826L235.73333333333335,37.4613257284843L238,37.460879542582234L240.26666666666665,37.471087069205254L242.53333333333336,37.46678939514865L244.8,37.473614456575206L247.06666666666666,37.46716352442172" style="fill: none;" fill="none"></path></g><g><path stroke="rgb(255, 112, 67)" stroke-width="2px" d="M22.666666666666664,125.50441020727158L24.93333333333333,112.25705615803601L27.200000000000003,100.55202235697078L29.46666666666667,92.01933205303025L31.733333333333334,86.1715551675428L34,81.97185842523997L36.266666666666666,77.29772184339836L38.53333333333333,72.92286187080818L40.8,69.5974971607526L43.06666666666666,66.47935070860436L45.33333333333333,63.476009945865385L47.599999999999994,61.46996553554865L49.86666666666666,59.299271731754445L52.13333333333334,57.37983610914401L54.400000000000006,55.47472158904965L56.66666666666667,53.574895558953074L58.93333333333334,52.124470768379425L61.2,50.83523606429455L63.46666666666667,49.43601695566966L65.73333333333333,48.21889780784417L68,47.06063184697402L70.26666666666668,45.89270160882859L72.53333333333333,44.61881674006787L74.80000000000001,43.63253781367078L77.06666666666666,42.85191448227269L79.33333333333334,41.767033123264554L81.6,40.98690132520636L83.86666666666667,40.07912418859593L86.13333333333333,38.04267699558051L88.4,36.13879744464276L90.66666666666666,35.114523316184005L92.93333333333334,34.367098095989235L95.19999999999999,33.83732374540966L97.46666666666667,33.42197082461195L99.73333333333332,33.10875120034564L102,32.73753812488937L104.26666666666668,32.560187656042274L106.53333333333333,32.05983485891838L108.80000000000001,31.923251919329346L111.06666666666666,31.70898242706042L113.33333333333334,31.43619700199727L115.6,31.190633574564515L117.86666666666667,30.970552380481934L120.13333333333333,30.629631941815518L122.4,30.265369430325507L124.66666666666666,30.10556096342725L126.93333333333334,29.89051209195162L129.2,29.741313868581102L131.46666666666667,29.566620850850114L133.73333333333332,29.25157528576338L136,29.162593190612426L138.26666666666665,28.872634012345856L140.53333333333336,28.742529312080563L142.8,28.408449124876142L145.06666666666666,28.195272996971994L147.33333333333331,28.165799900859582L149.60000000000002,27.81574826536766L151.86666666666667,27.483197314132326L154.13333333333333,27.154975507213123L156.39999999999998,26.93444661312506L158.66666666666669,26.833466577608647L160.93333333333334,26.736766923315884L163.2,26.78485047152492L165.46666666666664,26.81855273642651L167.73333333333335,26.770416270088248L170,26.702268161609425L172.26666666666665,26.695103763481768L174.53333333333336,26.6102497650827L176.8,26.629116881309642L179.06666666666666,26.455889766465845L181.33333333333331,26.502794097891183L183.60000000000002,26.569743174928902L185.86666666666667,26.571219312321233L188.13333333333333,26.596903229060416L190.39999999999998,26.566621453147718L192.66666666666669,26.59603656366363L194.93333333333334,26.485616825232313L197.2,26.451027644997453L199.46666666666664,26.531953263278183L201.73333333333335,26.402578120228867L204,26.360972717283516L206.26666666666665,26.46219683977668L208.53333333333336,26.406331515070036L210.8,26.422960489445643L213.06666666666666,26.468904508821396L215.33333333333331,26.384599479241558L217.60000000000002,26.420778452676558L219.86666666666667,26.491251217914822L222.13333333333333,26.50132051364173L224.39999999999998,26.318312688205197L226.66666666666669,26.325450835744675L228.93333333333334,26.32401513543931L231.2,26.40855413767025L233.46666666666664,26.49219921087618L235.73333333333335,26.51372611635165L238,26.418452358920803L240.26666666666665,26.382956498868964L242.53333333333336,26.432870797718152L244.8,26.32440972272829L247.06666666666666,26.278791133230584" style="fill: none;" fill="none"></path></g></g></g></g><g opacity="0.2"><g><g><g><path stroke="rgb(0, 119, 187)" stroke-width="2px" d="M22.666666666666664,139.17415173351765L24.93333333333333,128.89665490885577L27.200000000000003,128.31625085572404L29.46666666666667,130.02222800254822L31.733333333333334,121.4738616247972L34,104.54366464416188L36.266666666666666,98.82123866677286L38.53333333333333,97.02713309725127L40.8,90.05781957507135L43.06666666666666,88.70331062873207L45.33333333333333,84.88896413644157L47.599999999999994,77.24255307515465L49.86666666666666,68.16790942351025L52.13333333333334,57.4026305874189L54.400000000000006,54.87732722361885L56.66666666666667,44.60453842083615L58.93333333333334,38.781683484713255L61.2,59.36187499761583L63.46666666666667,40.1248357097308L65.73333333333333,70.00246419509254L68,56.700379391511305L70.26666666666668,60.00108732779823L72.53333333333333,37.84569336970651L74.80000000000001,59.22158036629361L77.06666666666666,32.0019463102023L79.33333333333334,47.53596945603692L81.6,53.50851738452913L83.86666666666667,34.02254972855252L86.13333333333333,36.23149170478189L88.4,33.31875129540765L90.66666666666666,31.812060515085875L92.93333333333334,31.99649119377139L95.19999999999999,30.803173422813444L97.46666666666667,30.831766366958647L99.73333333333332,32.44594150781634L102,32.11831623315814L104.26666666666668,33.06882385412854L106.53333333333333,34.57400276263559L108.80000000000001,32.98094077905023L111.06666666666666,33.90304996569955L113.33333333333334,33.90150272846225L115.6,34.190535485744505L117.86666666666667,33.58550383647287L120.13333333333333,33.560473958651244L122.4,34.7422714432081L124.66666666666666,34.045908590157865L126.93333333333334,33.95739777882898L129.2,34.50919562578204L131.46666666666667,37.34182451168698L133.73333333333332,34.804302394390135L136,36.43424167235696L138.26666666666665,35.28266394138339L140.53333333333336,36.48183468977612L142.8,36.46296723683679L145.06666666666666,33.13593858480456L147.33333333333331,36.54450221856439L149.60000000000002,36.61027306318286L151.86666666666667,35.93189352750781L154.13333333333333,36.826329270998656L156.39999999999998,36.881437440713285L158.66666666666669,37.14121415217721L160.93333333333334,37.46781382958096L163.2,37.52417747179669L165.46666666666664,37.368445833524106L167.73333333333335,37.42310309410098L170,36.99466868241632L172.26666666666665,37.31959734360379L174.53333333333336,37.07669878005984L176.8,37.702666759490995L179.06666666666666,37.721693356831906L181.33333333333331,37.56287608544034L183.60000000000002,37.03346455097201L185.86666666666667,37.30767919619882L188.13333333333333,37.78594348828L190.39999999999998,37.58532428741458L192.66666666666669,37.42469453811648L194.93333333333334,37.36977203687036L197.2,37.41254651546481L199.46666666666664,37.497361640135466L201.73333333333335,37.65807096163434L204,37.566129704316495L206.26666666666665,37.59946161508563L208.53333333333336,37.54449490706128L210.8,37.511437078317044L213.06666666666666,37.52219700813296L215.33333333333331,37.513063887755095L217.60000000000002,37.49864363670352L219.86666666666667,37.50889960924786L222.13333333333333,37.47354302803677L224.39999999999998,37.49496563275659L226.66666666666669,37.456275860468565L228.93333333333334,37.48431179920834L231.2,37.4183552861214L233.46666666666664,37.44196170568469L235.73333333333335,37.47735365231836L238,37.460210263729124L240.26666666666665,37.4863983591398L242.53333333333336,37.46034288406375L244.8,37.48385204871499L247.06666666666666,37.457487126191495" style="fill: none;" fill="none"></path></g><g><path stroke="rgb(255, 112, 67)" stroke-width="2px" d="M22.666666666666664,125.50441020727158L24.93333333333333,104.30864372849466L27.200000000000003,89.3151899079482L29.46666666666667,81.98488825559618L31.733333333333334,78.53669766585034L34,76.1621659398079L36.266666666666666,70.61363174517952L38.53333333333333,66.54427403211595L40.8,64.69323013226193L43.06666666666666,61.849266628424346L45.33333333333333,58.99823888142906L47.599999999999994,58.471815725167616L49.86666666666666,56.05031871795656L52.13333333333334,54.50444304943086L54.400000000000006,52.61928919951123L56.66666666666667,50.72649641831718L58.93333333333334,49.949447353680966L61.2,48.90171134471896L63.46666666666667,47.33740144968036L65.73333333333333,46.393330335617094L68,45.323296427726774L70.26666666666668,44.140844682852446L72.53333333333333,42.70801458756131L74.80000000000001,42.15313110748929L77.06666666666666,41.680985033512144L79.33333333333334,40.139715711275755L81.6,39.81670562426251L83.86666666666667,38.71745987733209L86.13333333333333,34.98800808191302L88.4,33.28297917048138L90.66666666666666,33.5781124631564L92.93333333333334,33.245960414409666L95.19999999999999,33.04266228278482L97.46666666666667,32.79894147316617L99.73333333333332,32.63892177740735L102,32.18071852127713L104.26666666666668,32.29416195551556L106.53333333333333,31.309305667877226L108.80000000000001,31.718377510706603L111.06666666666666,31.387578189373045L113.33333333333334,31.027018864949582L115.6,30.822288433710753L117.86666666666667,30.640430589516995L120.13333333333333,30.11825128396356L122.4,29.718975663185148L124.66666666666666,29.865848263104795L126.93333333333334,29.56793878475827L129.2,29.51751653353375L131.46666666666667,29.30458132425946L133.73333333333332,28.779006938139617L136,29.029120047887176L138.26666666666665,28.437695244948088L140.53333333333336,28.547372261683165L142.8,27.907328844070435L145.06666666666666,27.875508805116027L147.33333333333331,28.12159025669098L149.60000000000002,27.290670812129974L151.86666666666667,26.98437088727951L154.13333333333333,26.66264279683432L156.39999999999998,26.60365327199301L158.66666666666669,26.681996524333954L160.93333333333334,26.59171744187674L163.2,26.8569757938385L165.46666666666664,26.8691061337789L167.73333333333335,26.69821157058081L170,26.600045998891204L172.26666666666665,26.684357166290283L174.53333333333336,26.48296876748404L176.8,26.657417555650085L179.06666666666666,26.196049094200134L181.33333333333331,26.573150595029205L183.60000000000002,26.670166790485382L185.86666666666667,26.57343351840973L188.13333333333333,26.63542910416922L190.39999999999998,26.521198789278685L192.66666666666669,26.64015922943753L194.93333333333334,26.319987217585265L197.2,26.399143874645233L199.46666666666664,26.65334169069928L201.73333333333335,26.208515405654907L204,26.298564612865448L206.26666666666665,26.614033023516356L208.53333333333336,26.32253352801007L210.8,26.447903951009124L213.06666666666666,26.53782053788504L215.33333333333331,26.258141934871674L217.60000000000002,26.4750469128291L219.86666666666667,26.596960365772247L222.13333333333333,26.516424457232176L224.39999999999998,26.043800950050354L226.66666666666669,26.336158057053893L228.93333333333334,26.321861584981292L231.2,26.53536264101666L233.46666666666664,26.617666820685088L235.73333333333335,26.54601647456488L238,26.275541722774506L240.26666666666665,26.329712708791106L242.53333333333336,26.507742245992034L244.8,26.1617181102435L247.06666666666666,26.210363248984038" style="fill: none;" fill="none"></path></g></g></g></g></g><g><g opacity="0.036047"><span fill="rgb(0, 0, 0)" stroke="none" stroke-width="1px">Alt + Scroll to Zoom</span></g></g></g><g transform="translate(58, 178)" clip-path="url(#clip_1)"><clipPath id="clip_1"><rect width="272" height="22"></rect></clipPath><g><g><line x1="0" y1="0" x2="0" y2="5" style="visibility: inherit;" fill="rgb(0, 0, 0)" stroke="rgb(204, 204, 204)" stroke-width="1px"></line><line x1="22.666666666666664" y1="0" x2="22.666666666666664" y2="5" style="visibility: inherit;" fill="rgb(0, 0, 0)" stroke="rgb(204, 204, 204)" stroke-width="1px"></line><line x1="45.33333333333333" y1="0" x2="45.33333333333333" y2="5" style="visibility: inherit;" fill="rgb(0, 0, 0)" stroke="rgb(204, 204, 204)" stroke-width="1px"></line><line x1="68" y1="0" x2="68" y2="5" style="visibility: inherit;" fill="rgb(0, 0, 0)" stroke="rgb(204, 204, 204)" stroke-width="1px"></line><line x1="90.66666666666666" y1="0" x2="90.66666666666666" y2="5" style="visibility: inherit;" fill="rgb(0, 0, 0)" stroke="rgb(204, 204, 204)" stroke-width="1px"></line><line x1="113.33333333333334" y1="0" x2="113.33333333333334" y2="5" style="visibility: inherit;" fill="rgb(0, 0, 0)" stroke="rgb(204, 204, 204)" stroke-width="1px"></line><line x1="136" y1="0" x2="136" y2="5" style="visibility: inherit;" fill="rgb(0, 0, 0)" stroke="rgb(204, 204, 204)" stroke-width="1px"></line><line x1="158.66666666666669" y1="0" x2="158.66666666666669" y2="5" style="visibility: inherit;" fill="rgb(0, 0, 0)" stroke="rgb(204, 204, 204)" stroke-width="1px"></line><line x1="181.33333333333331" y1="0" x2="181.33333333333331" y2="5" style="visibility: inherit;" fill="rgb(0, 0, 0)" stroke="rgb(204, 204, 204)" stroke-width="1px"></line><line x1="204" y1="0" x2="204" y2="5" style="visibility: inherit;" fill="rgb(0, 0, 0)" stroke="rgb(204, 204, 204)" stroke-width="1px"></line><line x1="226.66666666666669" y1="0" x2="226.66666666666669" y2="5" style="visibility: inherit;" fill="rgb(0, 0, 0)" stroke="rgb(204, 204, 204)" stroke-width="1px"></line><line x1="249.33333333333331" y1="0" x2="249.33333333333331" y2="5" style="visibility: inherit;" fill="rgb(0, 0, 0)" stroke="rgb(204, 204, 204)" stroke-width="1px"></line><line x1="272" y1="0" x2="272" y2="5" style="visibility: inherit;" fill="rgb(0, 0, 0)" stroke="rgb(204, 204, 204)" stroke-width="1px"></line></g><g transform="translate(0, 8)"><text x="0" y="0" dx="0em" dy="0.95em" style="text-anchor: middle; visibility: hidden; font-family: &quot;Helvetica Neue&quot;, sans-serif; font-size: 12px; font-weight: 200;" fill="rgb(50, 49, 63)" stroke="none" stroke-width="1px">-10</text><text x="22.666666666666664" y="0" dx="0em" dy="0.95em" style="text-anchor: middle; visibility: inherit; font-family: &quot;Helvetica Neue&quot;, sans-serif; font-size: 12px; font-weight: 200;" fill="rgb(50, 49, 63)" stroke="none" stroke-width="1px">0</text><text x="45.33333333333333" y="0" dx="0em" dy="0.95em" style="text-anchor: middle; visibility: inherit; font-family: &quot;Helvetica Neue&quot;, sans-serif; font-size: 12px; font-weight: 200;" fill="rgb(50, 49, 63)" stroke="none" stroke-width="1px">10</text><text x="68" y="0" dx="0em" dy="0.95em" style="text-anchor: middle; visibility: inherit; font-family: &quot;Helvetica Neue&quot;, sans-serif; font-size: 12px; font-weight: 200;" fill="rgb(50, 49, 63)" stroke="none" stroke-width="1px">20</text><text x="90.66666666666666" y="0" dx="0em" dy="0.95em" style="text-anchor: middle; visibility: inherit; font-family: &quot;Helvetica Neue&quot;, sans-serif; font-size: 12px; font-weight: 200;" fill="rgb(50, 49, 63)" stroke="none" stroke-width="1px">30</text><text x="113.33333333333334" y="0" dx="0em" dy="0.95em" style="text-anchor: middle; visibility: inherit; font-family: &quot;Helvetica Neue&quot;, sans-serif; font-size: 12px; font-weight: 200;" fill="rgb(50, 49, 63)" stroke="none" stroke-width="1px">40</text><text x="136" y="0" dx="0em" dy="0.95em" style="text-anchor: middle; visibility: inherit; font-family: &quot;Helvetica Neue&quot;, sans-serif; font-size: 12px; font-weight: 200;" fill="rgb(50, 49, 63)" stroke="none" stroke-width="1px">50</text><text x="158.66666666666669" y="0" dx="0em" dy="0.95em" style="text-anchor: middle; visibility: inherit; font-family: &quot;Helvetica Neue&quot;, sans-serif; font-size: 12px; font-weight: 200;" fill="rgb(50, 49, 63)" stroke="none" stroke-width="1px">60</text><text x="181.33333333333331" y="0" dx="0em" dy="0.95em" style="text-anchor: middle; visibility: inherit; font-family: &quot;Helvetica Neue&quot;, sans-serif; font-size: 12px; font-weight: 200;" fill="rgb(50, 49, 63)" stroke="none" stroke-width="1px">70</text><text x="204" y="0" dx="0em" dy="0.95em" style="text-anchor: middle; visibility: inherit; font-family: &quot;Helvetica Neue&quot;, sans-serif; font-size: 12px; font-weight: 200;" fill="rgb(50, 49, 63)" stroke="none" stroke-width="1px">80</text><text x="226.66666666666669" y="0" dx="0em" dy="0.95em" style="text-anchor: middle; visibility: inherit; font-family: &quot;Helvetica Neue&quot;, sans-serif; font-size: 12px; font-weight: 200;" fill="rgb(50, 49, 63)" stroke="none" stroke-width="1px">90</text><text x="249.33333333333331" y="0" dx="0em" dy="0.95em" style="text-anchor: middle; visibility: inherit; font-family: &quot;Helvetica Neue&quot;, sans-serif; font-size: 12px; font-weight: 200;" fill="rgb(50, 49, 63)" stroke="none" stroke-width="1px">100</text><text x="272" y="0" dx="0em" dy="0.95em" style="text-anchor: middle; visibility: hidden; font-family: &quot;Helvetica Neue&quot;, sans-serif; font-size: 12px; font-weight: 200;" fill="rgb(50, 49, 63)" stroke="none" stroke-width="1px">110</text></g><line x1="0" y1="0" x2="272" y2="0" fill="rgb(0, 0, 0)" stroke="rgb(204, 204, 204)" stroke-width="1px"></line></g></g></g></g></svg>