<svg viewBox="0 0 330 200" xmlns="http://www.w3.org/2000/svg"><g><g><g><g><g><line x1="58" y1="178" x2="53" y2="178" style="visibility: inherit;" fill="rgb(0, 0, 0)" stroke="rgb(204, 204, 204)" stroke-width="1px"></line><line x1="58" y1="161.8181818181818" x2="53" y2="161.8181818181818" style="visibility: inherit;" fill="rgb(0, 0, 0)" stroke="rgb(204, 204, 204)" stroke-width="1px"></line><line x1="58" y1="145.63636363636363" x2="53" y2="145.63636363636363" style="visibility: inherit;" fill="rgb(0, 0, 0)" stroke="rgb(204, 204, 204)" stroke-width="1px"></line><line x1="58" y1="129.45454545454544" x2="53" y2="129.45454545454544" style="visibility: inherit;" fill="rgb(0, 0, 0)" stroke="rgb(204, 204, 204)" stroke-width="1px"></line><line x1="58" y1="113.27272727272727" x2="53" y2="113.27272727272727" style="visibility: inherit;" fill="rgb(0, 0, 0)" stroke="rgb(204, 204, 204)" stroke-width="1px"></line><line x1="58" y1="97.0909090909091" x2="53" y2="97.0909090909091" style="visibility: inherit;" fill="rgb(0, 0, 0)" stroke="rgb(204, 204, 204)" stroke-width="1px"></line><line x1="58" y1="80.90909090909092" x2="53" y2="80.90909090909092" style="visibility: inherit;" fill="rgb(0, 0, 0)" stroke="rgb(204, 204, 204)" stroke-width="1px"></line><line x1="58" y1="64.72727272727275" x2="53" y2="64.72727272727275" style="visibility: inherit;" fill="rgb(0, 0, 0)" stroke="rgb(204, 204, 204)" stroke-width="1px"></line><line x1="58" y1="48.54545454545456" x2="53" y2="48.54545454545456" style="visibility: inherit;" fill="rgb(0, 0, 0)" stroke="rgb(204, 204, 204)" stroke-width="1px"></line><line x1="58" y1="32.363636363636374" x2="53" y2="32.363636363636374" style="visibility: inherit;" fill="rgb(0, 0, 0)" stroke="rgb(204, 204, 204)" stroke-width="1px"></line><line x1="58" y1="16.181818181818187" x2="53" y2="16.181818181818187" style="visibility: inherit;" fill="rgb(0, 0, 0)" stroke="rgb(204, 204, 204)" stroke-width="1px"></line><line x1="58" y1="0" x2="53" y2="0" style="visibility: inherit;" fill="rgb(0, 0, 0)" stroke="rgb(204, 204, 204)" stroke-width="1px"></line></g><g transform="translate(48, 0)"><text x="0" y="178" dx="0em" dy="0.3em" style="text-anchor: end; visibility: hidden; font-family: &quot;Helvetica Neue&quot;, sans-serif; font-size: 12px; font-weight: 200;" fill="rgb(50, 49, 63)" stroke="none" stroke-width="1px">-0.1</text><text x="0" y="161.8181818181818" dx="0em" dy="0.3em" style="text-anchor: end; visibility: inherit; font-family: &quot;Helvetica Neue&quot;, sans-serif; font-size: 12px; font-weight: 200;" fill="rgb(50, 49, 63)" stroke="none" stroke-width="1px">0</text><text x="0" y="145.63636363636363" dx="0em" dy="0.3em" style="text-anchor: end; visibility: hidden; font-family: &quot;Helvetica Neue&quot;, sans-serif; font-size: 12px; font-weight: 200;" fill="rgb(50, 49, 63)" stroke="none" stroke-width="1px">0.1</text><text x="0" y="129.45454545454544" dx="0em" dy="0.3em" style="text-anchor: end; visibility: inherit; font-family: &quot;Helvetica Neue&quot;, sans-serif; font-size: 12px; font-weight: 200;" fill="rgb(50, 49, 63)" stroke="none" stroke-width="1px">0.2</text><text x="0" y="113.27272727272727" dx="0em" dy="0.3em" style="text-anchor: end; visibility: hidden; font-family: &quot;Helvetica Neue&quot;, sans-serif; font-size: 12px; font-weight: 200;" fill="rgb(50, 49, 63)" stroke="none" stroke-width="1px">0.3</text><text x="0" y="97.0909090909091" dx="0em" dy="0.3em" style="text-anchor: end; visibility: inherit; font-family: &quot;Helvetica Neue&quot;, sans-serif; font-size: 12px; font-weight: 200;" fill="rgb(50, 49, 63)" stroke="none" stroke-width="1px">0.4</text><text x="0" y="80.90909090909092" dx="0em" dy="0.3em" style="text-anchor: end; visibility: hidden; font-family: &quot;Helvetica Neue&quot;, sans-serif; font-size: 12px; font-weight: 200;" fill="rgb(50, 49, 63)" stroke="none" stroke-width="1px">0.5</text><text x="0" y="64.72727272727275" dx="0em" dy="0.3em" style="text-anchor: end; visibility: inherit; font-family: &quot;Helvetica Neue&quot;, sans-serif; font-size: 12px; font-weight: 200;" fill="rgb(50, 49, 63)" stroke="none" stroke-width="1px">0.6</text><text x="0" y="48.54545454545456" dx="0em" dy="0.3em" style="text-anchor: end; visibility: hidden; font-family: &quot;Helvetica Neue&quot;, sans-serif; font-size: 12px; font-weight: 200;" fill="rgb(50, 49, 63)" stroke="none" stroke-width="1px">0.7</text><text x="0" y="32.363636363636374" dx="0em" dy="0.3em" style="text-anchor: end; visibility: inherit; font-family: &quot;Helvetica Neue&quot;, sans-serif; font-size: 12px; font-weight: 200;" fill="rgb(50, 49, 63)" stroke="none" stroke-width="1px">0.8</text><text x="0" y="16.181818181818187" dx="0em" dy="0.3em" style="text-anchor: end; visibility: hidden; font-family: &quot;Helvetica Neue&quot;, sans-serif; font-size: 12px; font-weight: 200;" fill="rgb(50, 49, 63)" stroke="none" stroke-width="1px">0.9</text><text x="0" y="0" dx="0em" dy="0.3em" style="text-anchor: end; visibility: hidden; font-family: &quot;Helvetica Neue&quot;, sans-serif; font-size: 12px; font-weight: 200;" fill="rgb(50, 49, 63)" stroke="none" stroke-width="1px">1</text></g><line x1="58" y1="0" x2="58" y2="178" fill="rgb(0, 0, 0)" stroke="rgb(204, 204, 204)" stroke-width="1px"></line></g></g><g transform="translate(58, 0)" clip-path="url(#clip_0)"><clipPath id="clip_0"><rect width="272" height="178"></rect></clipPath><g><g><g><line x1="0" y1="0" x2="0" y2="178" fill="rgb(0, 0, 0)" stroke="rgb(60, 60, 60)" stroke-width="1px" opacity="0.25"></line><line x1="22.666666666666664" y1="0" x2="22.666666666666664" y2="178" fill="rgb(0, 0, 0)" stroke="rgb(60, 60, 60)" stroke-width="1px" opacity="0.25"></line><line x1="45.33333333333333" y1="0" x2="45.33333333333333" y2="178" fill="rgb(0, 0, 0)" stroke="rgb(60, 60, 60)" stroke-width="1px" opacity="0.25"></line><line x1="68" y1="0" x2="68" y2="178" fill="rgb(0, 0, 0)" stroke="rgb(60, 60, 60)" stroke-width="1px" opacity="0.25"></line><line x1="90.66666666666666" y1="0" x2="90.66666666666666" y2="178" fill="rgb(0, 0, 0)" stroke="rgb(60, 60, 60)" stroke-width="1px" opacity="0.25"></line><line x1="113.33333333333334" y1="0" x2="113.33333333333334" y2="178" fill="rgb(0, 0, 0)" stroke="rgb(60, 60, 60)" stroke-width="1px" opacity="0.25"></line><line x1="136" y1="0" x2="136" y2="178" fill="rgb(0, 0, 0)" stroke="rgb(60, 60, 60)" stroke-width="1px" opacity="0.25"></line><line x1="158.66666666666669" y1="0" x2="158.66666666666669" y2="178" fill="rgb(0, 0, 0)" stroke="rgb(60, 60, 60)" stroke-width="1px" opacity="0.25"></line><line x1="181.33333333333331" y1="0" x2="181.33333333333331" y2="178" fill="rgb(0, 0, 0)" stroke="rgb(60, 60, 60)" stroke-width="1px" opacity="0.25"></line><line x1="204" y1="0" x2="204" y2="178" fill="rgb(0, 0, 0)" stroke="rgb(60, 60, 60)" stroke-width="1px" opacity="0.25"></line><line x1="226.66666666666669" y1="0" x2="226.66666666666669" y2="178" fill="rgb(0, 0, 0)" stroke="rgb(60, 60, 60)" stroke-width="1px" opacity="0.25"></line><line x1="249.33333333333331" y1="0" x2="249.33333333333331" y2="178" fill="rgb(0, 0, 0)" stroke="rgb(60, 60, 60)" stroke-width="1px" opacity="0.25"></line><line x1="272" y1="0" x2="272" y2="178" fill="rgb(0, 0, 0)" stroke="rgb(60, 60, 60)" stroke-width="1px" opacity="0.25"></line></g><g><line x1="0" y1="178" x2="272" y2="178" fill="rgb(0, 0, 0)" stroke="rgb(60, 60, 60)" stroke-width="1px" opacity="0.25"></line><line x1="0" y1="161.8181818181818" x2="272" y2="161.8181818181818" fill="rgb(0, 0, 0)" stroke="rgb(60, 60, 60)" stroke-width="1px" opacity="0.25"></line><line x1="0" y1="145.63636363636363" x2="272" y2="145.63636363636363" fill="rgb(0, 0, 0)" stroke="rgb(60, 60, 60)" stroke-width="1px" opacity="0.25"></line><line x1="0" y1="129.45454545454544" x2="272" y2="129.45454545454544" fill="rgb(0, 0, 0)" stroke="rgb(60, 60, 60)" stroke-width="1px" opacity="0.25"></line><line x1="0" y1="113.27272727272727" x2="272" y2="113.27272727272727" fill="rgb(0, 0, 0)" stroke="rgb(60, 60, 60)" stroke-width="1px" opacity="0.25"></line><line x1="0" y1="97.0909090909091" x2="272" y2="97.0909090909091" fill="rgb(0, 0, 0)" stroke="rgb(60, 60, 60)" stroke-width="1px" opacity="0.25"></line><line x1="0" y1="80.90909090909092" x2="272" y2="80.90909090909092" fill="rgb(0, 0, 0)" stroke="rgb(60, 60, 60)" stroke-width="1px" opacity="0.25"></line><line x1="0" y1="64.72727272727275" x2="272" y2="64.72727272727275" fill="rgb(0, 0, 0)" stroke="rgb(60, 60, 60)" stroke-width="1px" opacity="0.25"></line><line x1="0" y1="48.54545454545456" x2="272" y2="48.54545454545456" fill="rgb(0, 0, 0)" stroke="rgb(60, 60, 60)" stroke-width="1px" opacity="0.25"></line><line x1="0" y1="32.363636363636374" x2="272" y2="32.363636363636374" fill="rgb(0, 0, 0)" stroke="rgb(60, 60, 60)" stroke-width="1px" opacity="0.25"></line><line x1="0" y1="16.181818181818187" x2="272" y2="16.181818181818187" fill="rgb(0, 0, 0)" stroke="rgb(60, 60, 60)" stroke-width="1px" opacity="0.25"></line><line x1="0" y1="0" x2="272" y2="0" fill="rgb(0, 0, 0)" stroke="rgb(60, 60, 60)" stroke-width="1px" opacity="0.25"></line></g></g></g><g><g><line x1="0" y1="161.8181818181818" x2="272" y2="161.8181818181818" fill="rgb(0, 0, 0)" stroke="rgb(153, 153, 153)" stroke-width="1.5px"></line></g></g><g><g><line x1="22.666666666666664" y1="0" x2="22.666666666666664" y2="178" fill="rgb(0, 0, 0)" stroke="rgb(153, 153, 153)" stroke-width="1.5px"></line></g></g><g><g><g><g><g><path stroke="rgb(0, 119, 187)" stroke-width="2px" d="M22.666666666666664,16.073430234735667L24.93333333333333,39.22279189933431L27.200000000000003,29.029265735056526L29.46666666666667,20.671886086942038L31.733333333333334,24.058464187438943L34,42.0487079732342L36.266666666666666,54.097112700919666L38.53333333333333,57.88730436856591L40.8,64.69262347124481L43.06666666666666,81.60979048964316L45.33333333333333,78.76968265259778L47.599999999999994,78.38904340103593L49.86666666666666,80.78869573334356L52.13333333333334,85.24753481225886L54.400000000000006,85.9467993102562L56.66666666666667,95.17159329408673L58.93333333333334,100.32548600293767L61.2,89.90484566573727L63.46666666666667,89.57182322374113L65.73333333333333,70.89670771399098L68,65.27007979868739L70.26666666666668,58.93337433277226L72.53333333333333,65.90681937936006L74.80000000000001,59.58339739252297L77.06666666666666,75.50329424082524L79.33333333333334,70.88086058701366L81.6,66.15714571025833L83.86666666666667,79.93258628217713L86.13333333333333,72.82079434760338L88.4,69.89605499765072L90.66666666666666,68.04347976476976L92.93333333333334,66.25911463751568L95.19999999999999,65.26934486994499L97.46666666666667,64.62651285912384L99.73333333333332,63.30541879769429L102,62.377244646728556L104.26666666666668,60.93426656746762L106.53333333333333,59.000626574327896L108.80000000000001,58.677194912909144L111.06666666666666,57.97846876378648L113.33333333333334,57.597504892235364L115.6,56.833202146094024L117.86666666666667,56.650146718872435L120.13333333333333,56.63738190242056L122.4,55.596245055844946L124.66666666666666,55.25657996153642L126.93333333333334,55.53448882471059L129.2,54.71990925314324L131.46666666666667,53.18906853666482L133.73333333333332,53.72763237670574L136,53.0328329338076L138.26666666666665,53.00496005615243L140.53333333333336,52.71063062256367L142.8,52.515996596901715L145.06666666666666,54.00356536120705L147.33333333333331,52.93376934263658L149.60000000000002,52.27020565437661L151.86666666666667,52.23227005733213L154.13333333333333,51.51227489214847L156.39999999999998,51.05857242568992L158.66666666666669,50.710463179063396L160.93333333333334,50.313421432648326L163.2,50.04328262747505L165.46666666666664,49.921643241618455L167.73333333333335,49.80505211505664L170,49.98266439919422L172.26666666666665,49.8421393492722L174.53333333333336,49.87096923724056L176.8,49.58205019316222L179.06666666666666,49.36764529818436L181.33333333333331,49.289214831165594L183.60000000000002,49.50368577985836L185.86666666666667,49.55176219194456L188.13333333333333,49.28005467400908L190.39999999999998,49.232744539870765L192.66666666666669,49.37103762496784L194.93333333333334,49.484337718357835L197.2,49.515407847370454L199.46666666666664,49.46536127204587L201.73333333333335,49.340294219268344L204,49.3243631118722L206.26666666666665,49.30683372419563L208.53333333333336,49.330992209920225L210.8,49.36663325201914L213.06666666666666,49.380398236234555L215.33333333333331,49.3946680625848L217.60000000000002,49.412983098931164L219.86666666666667,49.41580849519519L222.13333333333333,49.43970293020263L224.39999999999998,49.440791060905894L226.66666666666669,49.47083839254998L228.93333333333334,49.4663242281847L231.2,49.51139763049159L233.46666666666664,49.52348016910696L235.73333333333335,49.503237255780476L238,49.50052828854078L240.26666666666665,49.47884106848636L242.53333333333336,49.48688981010375L244.8,49.47691573219541L247.06666666666666,49.49195377863944" style="fill: none;" fill="none"></path></g><g><path stroke="rgb(255, 112, 67)" stroke-width="2px" d="M22.666666666666664,124.31681632995605L24.93333333333333,145.97181828057563L27.200000000000003,149.11477094796072L29.46666666666667,140.50616575617912L31.733333333333334,129.02723643279643L34,119.29034801269466L36.266666666666666,111.88237609738938L38.53333333333333,104.30903846546622L40.8,99.45531309598395L43.06666666666666,94.80042564024401L45.33333333333333,90.79009951951873L47.599999999999994,87.45299131285338L49.86666666666666,83.96314458919831L52.13333333333334,81.0194961614494L54.400000000000006,77.98908554652076L56.66666666666667,75.69323792133873L58.93333333333334,73.33391589942588L61.2,70.83547617902971L63.46666666666667,68.83108975552068L65.73333333333333,66.96479284538034L68,64.52687013334022L70.26666666666668,62.164307508543445L72.53333333333333,60.020283153451146L74.80000000000001,58.01010264133588L77.06666666666666,55.682953214026654L79.33333333333334,53.58471439724694L81.6,51.37139212558375L83.86666666666667,49.574909670895096L86.13333333333333,46.10667882820587L88.4,42.76237736974167L90.66666666666666,40.44792099031983L92.93333333333334,38.62087297830496L95.19999999999999,37.32596259670552L97.46666666666667,36.3798333649749L99.73333333333332,35.51427609892352L102,34.636903493072396L104.26666666666668,34.039079075772406L106.53333333333333,33.27239219331571L108.80000000000001,32.9305905983756L111.06666666666666,32.41483662138077L113.33333333333334,31.851447641238707L115.6,31.544259332012473L117.86666666666667,31.333653762404623L120.13333333333333,30.68535079614881L122.4,30.186835229682174L124.66666666666666,29.83934984980715L126.93333333333334,29.432099803002046L129.2,29.15770716996147L131.46666666666667,28.821481131875714L133.73333333333332,28.36469779756601L136,28.206211000038763L138.26666666666665,27.96078243921434L140.53333333333336,27.67326217877411L142.8,27.225374266159633L145.06666666666666,26.810309688132918L147.33333333333331,25.825136455551814L149.60000000000002,25.410981800296867L151.86666666666667,25.062816386197227L154.13333333333333,25.01529534797868L156.39999999999998,24.817445365705794L158.66666666666669,24.637924853742447L160.93333333333334,24.587446660431084L163.2,24.636442591762005L165.46666666666664,24.52747904334123L167.73333333333335,24.548212503200347L170,24.40925513413066L172.26666666666665,24.472231833377606L174.53333333333336,24.33275992494444L176.8,24.26102129060459L179.06666666666666,24.11025374684698L181.33333333333331,24.043952305259268L183.60000000000002,24.10429545264688L185.86666666666667,24.10946336021948L188.13333333333333,24.034176324140077L190.39999999999998,23.93119899780325L192.66666666666669,23.901187469665842L194.93333333333334,23.733098701517747L197.2,23.774090363474897L199.46666666666664,23.793870519118656L201.73333333333335,23.784295592291187L204,23.76598883809899L206.26666666666665,23.69389719343448L208.53333333333336,23.59840426246629L210.8,23.52500887751762L213.06666666666666,23.766829714147633L215.33333333333331,23.645084315790484L217.60000000000002,23.635359187385802L219.86666666666667,23.686283684539546L222.13333333333333,23.670163741135894L224.39999999999998,23.482597269506186L226.66666666666669,23.526423994887978L228.93333333333334,23.525979912610524L231.2,23.477364429541524L233.46666666666664,23.641436952666226L235.73333333333335,23.60694763018182L238,23.50141560299204L240.26666666666665,23.681689559271717L242.53333333333336,23.605474051960954L244.8,23.54798928111333L247.06666666666666,23.556322730294653" style="fill: none;" fill="none"></path></g></g></g></g><g opacity="0.2"><g><g><g><path stroke="rgb(0, 119, 187)" stroke-width="2px" d="M22.666666666666664,16.073430234735667L24.93333333333333,53.112408898093506L27.200000000000003,19.24348061734983L29.46666666666667,10.843607620759457L31.733333333333334,28.479980555447668L34,66.93569161675195L36.266666666666666,71.32652423598552L38.53333333333333,63.41344020583415L40.8,74.72914728251372L43.06666666666666,106.72981191765179L45.33333333333333,74.53528046607973L47.599999999999994,77.82015594569121L49.86666666666666,84.38033895059067L52.13333333333334,91.92705810070039L54.400000000000006,86.9948740980842L56.66666666666667,109.00227823040703L58.93333333333334,108.05414411154662L61.2,74.27653095938945L63.46666666666667,89.07234029336409L65.73333333333333,42.88574142889544L68,56.83044650337915L70.26666666666668,49.428524645892054L72.53333333333333,76.36684927073394L74.80000000000001,50.09833931922914L77.06666666666666,99.38302636146547L79.33333333333334,63.9472298188643L81.6,59.07158548181708L83.86666666666667,100.59572599150918L86.13333333333333,62.15311299670827L88.4,65.5089475891807L90.66666666666666,65.2646175297824L92.93333333333334,63.5825673016635L95.19999999999999,63.7846903367476L97.46666666666667,63.66226488893683L99.73333333333332,61.323777762326344L102,60.98498344421388L104.26666666666668,58.7697994709015L106.53333333333333,56.10016660256821L108.80000000000001,58.19204742258246L111.06666666666666,56.93037954243748L113.33333333333334,57.02605908567256L115.6,55.68674802780153L117.86666666666667,56.37556357817216L120.13333333333333,56.61823467774826L122.4,54.034539786252125L124.66666666666666,54.74708232012664L126.93333333333334,55.951352119445815L129.2,53.49803989583796L131.46666666666667,50.8928074619987L133.73333333333332,54.535478136756225L136,51.99063376946884L138.26666666666665,52.963150739669814L140.53333333333336,52.269136472181856L142.8,52.22404555840927L145.06666666666666,56.2349185076627L147.33333333333331,51.3290753147819L149.60000000000002,51.2748601219871L151.86666666666667,52.17536666176538L154.13333333333333,50.43228214437312L156.39999999999998,50.3780187260021L158.66666666666669,50.18829930912365L160.93333333333334,49.71785881302574L163.2,49.638074419715196L165.46666666666664,49.73918416283348L167.73333333333335,49.6301654252139L170,50.249082825400635L172.26666666666665,49.63135177438912L174.53333333333336,49.914214069193065L176.8,49.148671627044706L179.06666666666666,49.04603795571762L181.33333333333331,49.17156913063744L183.60000000000002,49.82539220289752L185.86666666666667,49.62387681007388L188.13333333333333,48.87249339710584L190.39999999999998,49.16177933866328L192.66666666666669,49.578477252613425L194.93333333333334,49.65428785844284L197.2,49.56201304088941L199.46666666666664,49.39029140905902L201.73333333333335,49.15269364010206L204,49.30046645077792L206.26666666666665,49.28053964268079L208.53333333333336,49.36722993850711L210.8,49.420094815167516L213.06666666666666,49.4010457125577L215.33333333333331,49.416072802110165L217.60000000000002,49.44045565345073L219.86666666666667,49.420046589591294L222.13333333333333,49.47554458271375L224.39999999999998,49.44242325696078L226.66666666666669,49.51590939001605L228.93333333333334,49.45955298163676L231.2,49.579007733951926L233.46666666666664,49.54160397702998L235.73333333333335,49.472872885790736L238,49.496464837681174L240.26666666666665,49.44631023840472L242.53333333333336,49.498962922529756L244.8,49.46195461533287L247.06666666666666,49.51451084830546" style="fill: none;" fill="none"></path></g><g><path stroke="rgb(255, 112, 67)" stroke-width="2px" d="M22.666666666666664,124.31681632995605L24.93333333333333,158.96481945094737L27.200000000000003,152.13200550865042L29.46666666666667,130.38244605064392L31.733333333333334,114.04034630818802L34,105.82072604786266L36.266666666666666,101.28885773095219L38.53333333333333,93.26703949408099L40.8,92.29701096361335L43.06666666666666,87.88846026767385L45.33333333333333,84.81098370118576L47.599999999999994,82.46548939834942L49.86666666666666,78.73976945877077L52.13333333333334,76.60979043353689L54.400000000000006,73.44703175804834L56.66666666666667,72.25108569318598L58.93333333333334,69.79593125256626L61.2,67.08845095200974L63.46666666666667,65.82481546835466L65.73333333333333,64.16551806709985L68,60.870119766755536L70.26666666666668,58.620541312477826L72.53333333333333,56.804288950833424L74.80000000000001,54.994855685667574L77.06666666666666,52.19224561344494L79.33333333333334,50.437365120107486L81.6,48.05141438137403L83.86666666666667,46.880188746885835L86.13333333333333,40.90433575890282L88.4,37.745927030389964L90.66666666666666,36.97623718868604L92.93333333333334,35.88030132380399L95.19999999999999,35.38359717889267L97.46666666666667,34.960639585148215L99.73333333333332,34.21594023704532L102,33.320844606919735L104.26666666666668,33.142342459071784L106.53333333333333,32.122361876747846L108.80000000000001,32.41788820786911L111.06666666666666,31.641205657612204L113.33333333333334,31.00636417215523L115.6,31.08347686854276L117.86666666666667,31.01774540814486L120.13333333333333,29.712896347045927L122.4,29.439061880111723L124.66666666666666,29.318121780048727L126.93333333333334,28.82122473283249L129.2,28.74611822041598L131.46666666666667,28.31714207475838L133.73333333333332,27.67952279611069L136,27.9684808037498L138.26666666666665,27.592639597979456L140.53333333333336,27.241981788115083L142.8,26.553542397239L145.06666666666666,26.18771282109347L147.33333333333331,24.347376606681138L149.60000000000002,24.78974981741473L151.86666666666667,24.540568265047938L154.13333333333333,24.944013790650814L156.39999999999998,24.52067039229655L158.66666666666669,24.3686440857974L160.93333333333334,24.511729370463996L163.2,24.709936488758444L165.46666666666664,24.36403372071007L167.73333333333335,24.57931269298902L170,24.200819080526202L172.26666666666665,24.566696882247953L174.53333333333336,24.12355206229472L176.8,24.153413339094698L179.06666666666666,23.884102431210607L181.33333333333331,23.944500142877786L183.60000000000002,24.194810173728257L185.86666666666667,24.117215221578448L188.13333333333333,23.92124577002093L190.39999999999998,23.77673300829801L192.66666666666669,23.856170177459745L194.93333333333334,23.480965549295632L197.2,23.83557785641065L199.46666666666664,23.823540752584307L201.73333333333335,23.76993320204997L204,23.738528706810712L206.26666666666665,23.585759726437658L208.53333333333336,23.455164866013973L210.8,23.414915800094633L213.06666666666666,24.129560969092637L215.33333333333331,23.462466218254804L217.60000000000002,23.620771494778722L219.86666666666667,23.762670430270106L222.13333333333333,23.645983826030402L224.39999999999998,23.201247562061667L226.66666666666669,23.592164082960664L228.93333333333334,23.525313789194314L231.2,23.404441204938024L233.46666666666664,23.887545737353236L235.73333333333335,23.555213646455258L238,23.34311756220731L240.26666666666665,23.952100493691205L242.53333333333336,23.49115079099485L244.8,23.461762124841897L247.06666666666666,23.56882290406662" style="fill: none;" fill="none"></path></g></g></g></g></g></g><g transform="translate(58, 178)" clip-path="url(#clip_1)"><clipPath id="clip_1"><rect width="272" height="22"></rect></clipPath><g><g><line x1="0" y1="0" x2="0" y2="5" style="visibility: inherit;" fill="rgb(0, 0, 0)" stroke="rgb(204, 204, 204)" stroke-width="1px"></line><line x1="22.666666666666664" y1="0" x2="22.666666666666664" y2="5" style="visibility: inherit;" fill="rgb(0, 0, 0)" stroke="rgb(204, 204, 204)" stroke-width="1px"></line><line x1="45.33333333333333" y1="0" x2="45.33333333333333" y2="5" style="visibility: inherit;" fill="rgb(0, 0, 0)" stroke="rgb(204, 204, 204)" stroke-width="1px"></line><line x1="68" y1="0" x2="68" y2="5" style="visibility: inherit;" fill="rgb(0, 0, 0)" stroke="rgb(204, 204, 204)" stroke-width="1px"></line><line x1="90.66666666666666" y1="0" x2="90.66666666666666" y2="5" style="visibility: inherit;" fill="rgb(0, 0, 0)" stroke="rgb(204, 204, 204)" stroke-width="1px"></line><line x1="113.33333333333334" y1="0" x2="113.33333333333334" y2="5" style="visibility: inherit;" fill="rgb(0, 0, 0)" stroke="rgb(204, 204, 204)" stroke-width="1px"></line><line x1="136" y1="0" x2="136" y2="5" style="visibility: inherit;" fill="rgb(0, 0, 0)" stroke="rgb(204, 204, 204)" stroke-width="1px"></line><line x1="158.66666666666669" y1="0" x2="158.66666666666669" y2="5" style="visibility: inherit;" fill="rgb(0, 0, 0)" stroke="rgb(204, 204, 204)" stroke-width="1px"></line><line x1="181.33333333333331" y1="0" x2="181.33333333333331" y2="5" style="visibility: inherit;" fill="rgb(0, 0, 0)" stroke="rgb(204, 204, 204)" stroke-width="1px"></line><line x1="204" y1="0" x2="204" y2="5" style="visibility: inherit;" fill="rgb(0, 0, 0)" stroke="rgb(204, 204, 204)" stroke-width="1px"></line><line x1="226.66666666666669" y1="0" x2="226.66666666666669" y2="5" style="visibility: inherit;" fill="rgb(0, 0, 0)" stroke="rgb(204, 204, 204)" stroke-width="1px"></line><line x1="249.33333333333331" y1="0" x2="249.33333333333331" y2="5" style="visibility: inherit;" fill="rgb(0, 0, 0)" stroke="rgb(204, 204, 204)" stroke-width="1px"></line><line x1="272" y1="0" x2="272" y2="5" style="visibility: inherit;" fill="rgb(0, 0, 0)" stroke="rgb(204, 204, 204)" stroke-width="1px"></line></g><g transform="translate(0, 8)"><text x="0" y="0" dx="0em" dy="0.95em" style="text-anchor: middle; visibility: hidden; font-family: &quot;Helvetica Neue&quot;, sans-serif; font-size: 12px; font-weight: 200;" fill="rgb(50, 49, 63)" stroke="none" stroke-width="1px">-10</text><text x="22.666666666666664" y="0" dx="0em" dy="0.95em" style="text-anchor: middle; visibility: inherit; font-family: &quot;Helvetica Neue&quot;, sans-serif; font-size: 12px; font-weight: 200;" fill="rgb(50, 49, 63)" stroke="none" stroke-width="1px">0</text><text x="45.33333333333333" y="0" dx="0em" dy="0.95em" style="text-anchor: middle; visibility: inherit; font-family: &quot;Helvetica Neue&quot;, sans-serif; font-size: 12px; font-weight: 200;" fill="rgb(50, 49, 63)" stroke="none" stroke-width="1px">10</text><text x="68" y="0" dx="0em" dy="0.95em" style="text-anchor: middle; visibility: inherit; font-family: &quot;Helvetica Neue&quot;, sans-serif; font-size: 12px; font-weight: 200;" fill="rgb(50, 49, 63)" stroke="none" stroke-width="1px">20</text><text x="90.66666666666666" y="0" dx="0em" dy="0.95em" style="text-anchor: middle; visibility: inherit; font-family: &quot;Helvetica Neue&quot;, sans-serif; font-size: 12px; font-weight: 200;" fill="rgb(50, 49, 63)" stroke="none" stroke-width="1px">30</text><text x="113.33333333333334" y="0" dx="0em" dy="0.95em" style="text-anchor: middle; visibility: inherit; font-family: &quot;Helvetica Neue&quot;, sans-serif; font-size: 12px; font-weight: 200;" fill="rgb(50, 49, 63)" stroke="none" stroke-width="1px">40</text><text x="136" y="0" dx="0em" dy="0.95em" style="text-anchor: middle; visibility: inherit; font-family: &quot;Helvetica Neue&quot;, sans-serif; font-size: 12px; font-weight: 200;" fill="rgb(50, 49, 63)" stroke="none" stroke-width="1px">50</text><text x="158.66666666666669" y="0" dx="0em" dy="0.95em" style="text-anchor: middle; visibility: inherit; font-family: &quot;Helvetica Neue&quot;, sans-serif; font-size: 12px; font-weight: 200;" fill="rgb(50, 49, 63)" stroke="none" stroke-width="1px">60</text><text x="181.33333333333331" y="0" dx="0em" dy="0.95em" style="text-anchor: middle; visibility: inherit; font-family: &quot;Helvetica Neue&quot;, sans-serif; font-size: 12px; font-weight: 200;" fill="rgb(50, 49, 63)" stroke="none" stroke-width="1px">70</text><text x="204" y="0" dx="0em" dy="0.95em" style="text-anchor: middle; visibility: inherit; font-family: &quot;Helvetica Neue&quot;, sans-serif; font-size: 12px; font-weight: 200;" fill="rgb(50, 49, 63)" stroke="none" stroke-width="1px">80</text><text x="226.66666666666669" y="0" dx="0em" dy="0.95em" style="text-anchor: middle; visibility: inherit; font-family: &quot;Helvetica Neue&quot;, sans-serif; font-size: 12px; font-weight: 200;" fill="rgb(50, 49, 63)" stroke="none" stroke-width="1px">90</text><text x="249.33333333333331" y="0" dx="0em" dy="0.95em" style="text-anchor: middle; visibility: inherit; font-family: &quot;Helvetica Neue&quot;, sans-serif; font-size: 12px; font-weight: 200;" fill="rgb(50, 49, 63)" stroke="none" stroke-width="1px">100</text><text x="272" y="0" dx="0em" dy="0.95em" style="text-anchor: middle; visibility: hidden; font-family: &quot;Helvetica Neue&quot;, sans-serif; font-size: 12px; font-weight: 200;" fill="rgb(50, 49, 63)" stroke="none" stroke-width="1px">110</text></g><line x1="0" y1="0" x2="272" y2="0" fill="rgb(0, 0, 0)" stroke="rgb(204, 204, 204)" stroke-width="1px"></line></g></g></g></g></svg>