<svg viewBox="0 0 330 200" xmlns="http://www.w3.org/2000/svg"><g><g><g><g><g><line x1="58" y1="178" x2="53" y2="178" style="visibility: inherit;" fill="rgb(0, 0, 0)" stroke="rgb(204, 204, 204)" stroke-width="1px"></line><line x1="58" y1="155.75" x2="53" y2="155.75" style="visibility: inherit;" fill="rgb(0, 0, 0)" stroke="rgb(204, 204, 204)" stroke-width="1px"></line><line x1="58" y1="133.5" x2="53" y2="133.5" style="visibility: inherit;" fill="rgb(0, 0, 0)" stroke="rgb(204, 204, 204)" stroke-width="1px"></line><line x1="58" y1="111.24999999999999" x2="53" y2="111.24999999999999" style="visibility: inherit;" fill="rgb(0, 0, 0)" stroke="rgb(204, 204, 204)" stroke-width="1px"></line><line x1="58" y1="88.99999999999999" x2="53" y2="88.99999999999999" style="visibility: inherit;" fill="rgb(0, 0, 0)" stroke="rgb(204, 204, 204)" stroke-width="1px"></line><line x1="58" y1="66.75" x2="53" y2="66.75" style="visibility: inherit;" fill="rgb(0, 0, 0)" stroke="rgb(204, 204, 204)" stroke-width="1px"></line><line x1="58" y1="44.5" x2="53" y2="44.5" style="visibility: inherit;" fill="rgb(0, 0, 0)" stroke="rgb(204, 204, 204)" stroke-width="1px"></line><line x1="58" y1="22.25" x2="53" y2="22.25" style="visibility: inherit;" fill="rgb(0, 0, 0)" stroke="rgb(204, 204, 204)" stroke-width="1px"></line><line x1="58" y1="0" x2="53" y2="0" style="visibility: inherit;" fill="rgb(0, 0, 0)" stroke="rgb(204, 204, 204)" stroke-width="1px"></line></g><g transform="translate(48, 0)"><text x="0" y="178" dx="0em" dy="0.3em" style="text-anchor: end; visibility: hidden; font-family: &quot;Helvetica Neue&quot;, sans-serif; font-size: 12px; font-weight: 200;" fill="rgb(50, 49, 63)" stroke="none" stroke-width="1px">-0.2</text><text x="0" y="155.75" dx="0em" dy="0.3em" style="text-anchor: end; visibility: inherit; font-family: &quot;Helvetica Neue&quot;, sans-serif; font-size: 12px; font-weight: 200;" fill="rgb(50, 49, 63)" stroke="none" stroke-width="1px">0</text><text x="0" y="133.5" dx="0em" dy="0.3em" style="text-anchor: end; visibility: hidden; font-family: &quot;Helvetica Neue&quot;, sans-serif; font-size: 12px; font-weight: 200;" fill="rgb(50, 49, 63)" stroke="none" stroke-width="1px">0.2</text><text x="0" y="111.24999999999999" dx="0em" dy="0.3em" style="text-anchor: end; visibility: inherit; font-family: &quot;Helvetica Neue&quot;, sans-serif; font-size: 12px; font-weight: 200;" fill="rgb(50, 49, 63)" stroke="none" stroke-width="1px">0.4</text><text x="0" y="88.99999999999999" dx="0em" dy="0.3em" style="text-anchor: end; visibility: hidden; font-family: &quot;Helvetica Neue&quot;, sans-serif; font-size: 12px; font-weight: 200;" fill="rgb(50, 49, 63)" stroke="none" stroke-width="1px">0.6</text><text x="0" y="66.75" dx="0em" dy="0.3em" style="text-anchor: end; visibility: inherit; font-family: &quot;Helvetica Neue&quot;, sans-serif; font-size: 12px; font-weight: 200;" fill="rgb(50, 49, 63)" stroke="none" stroke-width="1px">0.8</text><text x="0" y="44.5" dx="0em" dy="0.3em" style="text-anchor: end; visibility: hidden; font-family: &quot;Helvetica Neue&quot;, sans-serif; font-size: 12px; font-weight: 200;" fill="rgb(50, 49, 63)" stroke="none" stroke-width="1px">1</text><text x="0" y="22.25" dx="0em" dy="0.3em" style="text-anchor: end; visibility: inherit; font-family: &quot;Helvetica Neue&quot;, sans-serif; font-size: 12px; font-weight: 200;" fill="rgb(50, 49, 63)" stroke="none" stroke-width="1px">1.2</text><text x="0" y="0" dx="0em" dy="0.3em" style="text-anchor: end; visibility: hidden; font-family: &quot;Helvetica Neue&quot;, sans-serif; font-size: 12px; font-weight: 200;" fill="rgb(50, 49, 63)" stroke="none" stroke-width="1px">1.4</text></g><line x1="58" y1="0" x2="58" y2="178" fill="rgb(0, 0, 0)" stroke="rgb(204, 204, 204)" stroke-width="1px"></line></g></g><g transform="translate(58, 0)" clip-path="url(#clip_0)"><clipPath id="clip_0"><rect width="272" height="178"></rect></clipPath><g><g><g><line x1="0" y1="0" x2="0" y2="178" fill="rgb(0, 0, 0)" stroke="rgb(60, 60, 60)" stroke-width="1px" opacity="0.25"></line><line x1="22.666666666666664" y1="0" x2="22.666666666666664" y2="178" fill="rgb(0, 0, 0)" stroke="rgb(60, 60, 60)" stroke-width="1px" opacity="0.25"></line><line x1="45.33333333333333" y1="0" x2="45.33333333333333" y2="178" fill="rgb(0, 0, 0)" stroke="rgb(60, 60, 60)" stroke-width="1px" opacity="0.25"></line><line x1="68" y1="0" x2="68" y2="178" fill="rgb(0, 0, 0)" stroke="rgb(60, 60, 60)" stroke-width="1px" opacity="0.25"></line><line x1="90.66666666666666" y1="0" x2="90.66666666666666" y2="178" fill="rgb(0, 0, 0)" stroke="rgb(60, 60, 60)" stroke-width="1px" opacity="0.25"></line><line x1="113.33333333333334" y1="0" x2="113.33333333333334" y2="178" fill="rgb(0, 0, 0)" stroke="rgb(60, 60, 60)" stroke-width="1px" opacity="0.25"></line><line x1="136" y1="0" x2="136" y2="178" fill="rgb(0, 0, 0)" stroke="rgb(60, 60, 60)" stroke-width="1px" opacity="0.25"></line><line x1="158.66666666666669" y1="0" x2="158.66666666666669" y2="178" fill="rgb(0, 0, 0)" stroke="rgb(60, 60, 60)" stroke-width="1px" opacity="0.25"></line><line x1="181.33333333333331" y1="0" x2="181.33333333333331" y2="178" fill="rgb(0, 0, 0)" stroke="rgb(60, 60, 60)" stroke-width="1px" opacity="0.25"></line><line x1="204" y1="0" x2="204" y2="178" fill="rgb(0, 0, 0)" stroke="rgb(60, 60, 60)" stroke-width="1px" opacity="0.25"></line><line x1="226.66666666666669" y1="0" x2="226.66666666666669" y2="178" fill="rgb(0, 0, 0)" stroke="rgb(60, 60, 60)" stroke-width="1px" opacity="0.25"></line><line x1="249.33333333333331" y1="0" x2="249.33333333333331" y2="178" fill="rgb(0, 0, 0)" stroke="rgb(60, 60, 60)" stroke-width="1px" opacity="0.25"></line><line x1="272" y1="0" x2="272" y2="178" fill="rgb(0, 0, 0)" stroke="rgb(60, 60, 60)" stroke-width="1px" opacity="0.25"></line></g><g><line x1="0" y1="178" x2="272" y2="178" fill="rgb(0, 0, 0)" stroke="rgb(60, 60, 60)" stroke-width="1px" opacity="0.25"></line><line x1="0" y1="155.75" x2="272" y2="155.75" fill="rgb(0, 0, 0)" stroke="rgb(60, 60, 60)" stroke-width="1px" opacity="0.25"></line><line x1="0" y1="133.5" x2="272" y2="133.5" fill="rgb(0, 0, 0)" stroke="rgb(60, 60, 60)" stroke-width="1px" opacity="0.25"></line><line x1="0" y1="111.24999999999999" x2="272" y2="111.24999999999999" fill="rgb(0, 0, 0)" stroke="rgb(60, 60, 60)" stroke-width="1px" opacity="0.25"></line><line x1="0" y1="88.99999999999999" x2="272" y2="88.99999999999999" fill="rgb(0, 0, 0)" stroke="rgb(60, 60, 60)" stroke-width="1px" opacity="0.25"></line><line x1="0" y1="66.75" x2="272" y2="66.75" fill="rgb(0, 0, 0)" stroke="rgb(60, 60, 60)" stroke-width="1px" opacity="0.25"></line><line x1="0" y1="44.5" x2="272" y2="44.5" fill="rgb(0, 0, 0)" stroke="rgb(60, 60, 60)" stroke-width="1px" opacity="0.25"></line><line x1="0" y1="22.25" x2="272" y2="22.25" fill="rgb(0, 0, 0)" stroke="rgb(60, 60, 60)" stroke-width="1px" opacity="0.25"></line><line x1="0" y1="0" x2="272" y2="0" fill="rgb(0, 0, 0)" stroke="rgb(60, 60, 60)" stroke-width="1px" opacity="0.25"></line></g></g></g><g><g><line x1="0" y1="155.75" x2="272" y2="155.75" fill="rgb(0, 0, 0)" stroke="rgb(153, 153, 153)" stroke-width="1.5px"></line></g></g><g><g><line x1="22.666666666666664" y1="0" x2="22.666666666666664" y2="178" fill="rgb(0, 0, 0)" stroke="rgb(153, 153, 153)" stroke-width="1.5px"></line></g></g><g><g><g><g><g><path stroke="rgb(0, 119, 187)" stroke-width="2px" d="M31.733333333333334,-18.835833031629846L34,12.153370322899718L36.266666666666666,30.885702618068336L38.53333333333333,43.03424614243727L40.8,51.31948268900527L43.06666666666666,50.06899872968427L45.33333333333333,57.41814485418948L47.599999999999994,63.88350983250882L49.86666666666666,68.18776756952289L52.13333333333334,70.07048944231866L54.400000000000006,73.56736275421441L56.66666666666667,68.63494198063185L58.93333333333334,66.00475866203874L61.2,72.4614491863522L63.46666666666667,75.48900182721161L65.73333333333333,81.89605304379307L68,87.60903407865314L70.26666666666668,92.0906371129419L72.53333333333333,92.09166793164276L74.80000000000001,94.25930234395072L77.06666666666666,84.79755182580111L79.33333333333334,89.06037406615793L81.6,91.97612476447364L83.86666666666667,83.48796677936272L86.13333333333333,91.71300122913146L88.4,96.38884528698749L90.66666666666666,99.71330908659064L92.93333333333334,102.18697994203836L95.19999999999999,103.79912780324884L97.46666666666667,104.80929527852541L99.73333333333332,105.7073726788984L102,106.3814454348369L104.26666666666668,107.1518893809007L106.53333333333333,107.9789624585158L108.80000000000001,108.24351459940283L111.06666666666666,108.57326511009909L113.33333333333334,108.68061662601723L115.6,109.01899462291367L117.86666666666667,109.09624429555242L120.13333333333333,109.08064979321391L122.4,109.40115301914345L124.66666666666666,109.56893345480613L126.93333333333334,109.23142545678216L129.2,109.63727665698246L131.46666666666667,109.90781142268375L133.73333333333332,109.52703874977398L136,109.66460726959752L138.26666666666665,109.65554221155193L140.53333333333336,109.40482717264814L142.8,109.33109248882L145.06666666666666,108.99239740196126L147.33333333333331,109.50189794256264L149.60000000000002,109.79830821248284L151.86666666666667,109.8892575525784L154.13333333333333,110.17238901993893L156.39999999999998,110.34054781461515L158.66666666666669,110.4292314110086L160.93333333333334,110.49506702470097L163.2,110.55074409513064L165.46666666666664,110.5894710652136L167.73333333333335,110.60167854023594L170,110.56418663556944L172.26666666666665,110.59281397936088L174.53333333333336,110.5817979549011L176.8,110.65796995309833L179.06666666666666,110.71103092818167L181.33333333333331,110.71598271899644L183.60000000000002,110.65090232117905L185.86666666666667,110.63460112228354L188.13333333333333,110.69153904088951L190.39999999999998,110.68363594811329L192.66666666666669,110.6015061485837L194.93333333333334,110.53685889828623L197.2,110.50291384272826L199.46666666666664,110.50006330319077L201.73333333333335,110.51960936670203L204,110.51852853289066L206.26666666666665,110.507596651857L208.53333333333336,110.49135623880916L210.8,110.47554461067136L213.06666666666666,110.4669382328106L215.33333333333331,110.46350908007102L217.60000000000002,110.45523567334341L219.86666666666667,110.4518710305424L222.13333333333333,110.44441613734553L224.39999999999998,110.44544031429761L226.66666666666669,110.43973015671058L228.93333333333334,110.44300006285359L231.2,110.42937911722093L233.46666666666664,110.42186434670107L235.73333333333335,110.42781127157102L238,110.43284090258055L240.26666666666665,110.44087040363176L242.53333333333336,110.43531586789146L244.8,110.43663679398925L247.06666666666666,110.42937531672617" style="fill: none;" fill="none"></path></g><g><path stroke="rgb(255, 112, 67)" stroke-width="2px" d="M22.666666666666664,14.675225138664274L24.93333333333333,10.43372844159606L27.200000000000003,14.141789614546099L29.46666666666667,26.42903165157665L31.733333333333334,38.561636185269634L34,47.737372589268546L36.266666666666666,55.01834577980388L38.53333333333333,61.919353259589315L40.8,66.4957554130369L43.06666666666666,70.77219731742127L45.33333333333333,74.54925050364778L47.599999999999994,77.55832133381735L49.86666666666666,80.65048111191818L52.13333333333334,83.32723323711654L54.400000000000006,86.08805636670523L56.66666666666667,88.44081983132534L58.93333333333334,90.63228709660554L61.2,92.84073332387536L63.46666666666667,94.81715216088038L65.73333333333333,96.63699146968817L68,98.79842047278123L70.26666666666668,100.8285720375634L72.53333333333333,102.72854656065091L74.80000000000001,104.41630592823071L77.06666666666666,106.30421334133246L79.33333333333334,108.14883500060725L81.6,109.92277182537103L83.86666666666667,111.50279276480701L86.13333333333333,114.64230482271228L88.4,117.72925996474164L90.66666666666666,119.71284214159508L92.93333333333334,121.28060384055418L95.19999999999999,122.35507603030516L97.46666666666667,123.20171754128222L99.73333333333332,123.92618789169757L102,124.66650559410255L104.26666666666668,125.12935721805913L106.53333333333333,125.87993262647872L108.80000000000001,126.18850407930984L111.06666666666666,126.62931110579748L113.33333333333334,127.10632073392372L115.6,127.44883511535855L117.86666666666667,127.73081461838598L120.13333333333333,128.32787994753758L122.4,128.83039680701617L124.66666666666666,129.14597926637782L126.93333333333334,129.5297090402464L129.2,129.80780759402063L131.46666666666667,130.1379899945777L133.73333333333332,130.59555387896202L136,130.7443084532143L138.26666666666665,131.08333037877904L140.53333333333336,131.33555710068285L142.8,131.80087774396551L145.06666666666666,132.1901549541989L147.33333333333331,132.7656483318831L149.60000000000002,133.21380071141883L151.86666666666667,133.6700528430854L154.13333333333333,133.89850632059066L156.39999999999998,134.16975636754924L158.66666666666669,134.3190089611679L160.93333333333334,134.39830432376084L163.2,134.360307607298L165.46666666666664,134.42131767168337L167.73333333333335,134.45591119673665L170,134.57292911855467L172.26666666666665,134.549159134615L174.53333333333336,134.66894646298203L176.8,134.70949194765873L179.06666666666666,134.88368154279462L181.33333333333331,134.89745646692558L183.60000000000002,134.82209103838946L185.86666666666667,134.82205685547797L188.13333333333333,134.83517106367236L190.39999999999998,134.90673050429274L192.66666666666669,134.9143931382647L194.93333333333334,135.10336149714894L197.2,135.1058387576491L199.46666666666664,135.04523094707432L201.73333333333335,135.11933369465888L204,135.1657455252303L206.26666666666665,135.14429432968456L208.53333333333336,135.23290005070066L210.8,135.2618509888178L213.06666666666666,135.10136243161713L215.33333333333331,135.21716435675117L217.60000000000002,135.20695992067033L219.86666666666667,135.1475809112464L222.13333333333333,135.14487451435772L224.39999999999998,135.35036318970708L226.66666666666669,135.31301006807678L228.93333333333334,135.32120298972006L231.2,135.309313757004L233.46666666666664,135.15838131474354L235.73333333333335,135.16835800955832L238,135.2777719730147L240.26666666666665,135.21935137563992L242.53333333333336,135.22497102143794L244.8,135.3014132977869L247.06666666666666,135.33230184920703" style="fill: none;" fill="none"></path></g></g></g></g><g opacity="0.2"><g><g><g><path stroke="rgb(0, 119, 187)" stroke-width="2px" d="M22.666666666666664,-359.951226592064L24.93333333333333,5.026777505874634L27.200000000000003,0.7305550277233124L29.46666666666667,-15.830647975206375L31.733333333333334,11.371387362480164L34,55.022594675421715L36.266666666666666,57.67323751747608L38.53333333333333,60.74693922698498L40.8,63.53859727084637L43.06666666666666,48.21217578649521L45.33333333333333,68.37520782649517L47.599999999999994,73.54637306928635L49.86666666666666,74.63010002672672L52.13333333333334,72.89088380336761L54.400000000000006,78.80856227874756L56.66666666666667,61.23978954553604L58.93333333333334,62.06059668958187L61.2,82.1448456197977L63.46666666666667,80.02986957132816L65.73333333333333,91.50604423880577L68,96.17819231748581L70.26666666666668,98.81289419531822L72.53333333333333,92.09321413934231L74.80000000000001,97.5107282847166L77.06666666666666,70.60499329864979L79.33333333333334,95.45458924770355L81.6,96.3497433513403L83.86666666666667,70.7557428330183L86.13333333333333,104.0505453273654L88.4,103.40260878950357L90.66666666666666,104.70000368356705L92.93333333333334,105.89748573303223L95.19999999999999,106.21734940260649L97.46666666666667,106.32454641908407L99.73333333333332,107.05448874086142L102,107.39255455136299L104.26666666666668,108.3075552880764L106.53333333333333,109.21957206726074L108.80000000000001,108.64034280925989L111.06666666666666,109.06789087504148L113.33333333333334,108.84164389967918L115.6,109.52656161785126L117.86666666666667,109.2121188044548L120.13333333333333,109.0572580397129L122.4,109.8819078579545L124.66666666666666,109.82060410827398L126.93333333333334,108.72516345977783L129.2,110.24605345726013L131.46666666666667,110.3136135712266L133.73333333333332,108.955879740417L136,109.87096004933119L138.26666666666665,109.64194462448359L140.53333333333336,109.02875461429358L142.8,109.22049046307802L145.06666666666666,108.48435477167368L147.33333333333331,110.26614875346422L149.60000000000002,110.24292361736298L151.86666666666667,110.02568156272173L154.13333333333333,110.59708622097969L156.39999999999998,110.59278600662947L158.66666666666669,110.56225680559874L160.93333333333334,110.59382044523954L163.2,110.63425970077515L165.46666666666664,110.64756152033806L167.73333333333335,110.61998975276947L170,110.5079487785697L172.26666666666665,110.63575499504805L174.53333333333336,110.56527391821146L176.8,110.77222795039415L179.06666666666666,110.79062239080667L181.33333333333331,110.7234104052186L183.60000000000002,110.55328172445297L185.86666666666667,110.61014932394028L188.13333333333333,110.77694591879845L190.39999999999998,110.671781308949L192.66666666666669,110.47831144928932L194.93333333333334,110.43988802284002L197.2,110.45199625939131L199.46666666666664,110.49578749388456L201.73333333333335,110.5489284619689L204,110.51690728217363L206.26666666666665,110.49119883030653L208.53333333333336,110.46699561923742L210.8,110.45182716846466L213.06666666666666,110.45402866601944L215.33333333333331,110.45836535096169L217.60000000000002,110.44282556325197L219.86666666666667,110.44682406634092L222.13333333333333,110.4332337975502L224.39999999999998,110.44697657972574L226.66666666666669,110.43116492033005L228.93333333333334,110.44790492206812L231.2,110.40894769877195L233.46666666666664,110.4105921909213L235.73333333333335,110.43673165887594L238,110.44038534909487L240.26666666666665,110.45291465520859L242.53333333333336,110.42698406428099L244.8,110.43861818313599L247.06666666666666,110.41848310083151" style="fill: none;" fill="none"></path></g><g><path stroke="rgb(255, 112, 67)" stroke-width="2px" d="M22.666666666666664,14.675225138664246L24.93333333333333,7.8888304233551025L27.200000000000003,17.70152834057808L29.46666666666667,40.878828287124634L31.733333333333334,54.40196466445923L34,60.430719301104546L36.266666666666666,65.43025393784046L38.53333333333333,71.98108841478825L40.8,73.24505966901779L43.06666666666666,77.1222151517868L45.33333333333333,80.18057268857956L47.599999999999994,82.05555234849453L49.86666666666666,85.27862434089184L52.13333333333334,87.33711738884449L54.400000000000006,90.22604581713676L56.66666666666667,91.96830567717552L58.93333333333334,93.91856063902378L61.2,96.1528419405222L63.46666666666667,97.78147932887077L65.73333333333333,99.36658409237862L68,102.0404454395175L70.26666666666668,103.87373258173466L72.53333333333333,105.57847083359957L74.80000000000001,106.94792498648167L77.06666666666666,109.13606104254723L79.33333333333334,110.91575962305069L81.6,112.58367252349854L83.86666666666667,113.87282174825668L86.13333333333333,119.35157001763582L88.4,122.35969097167253L90.66666666666666,122.68821474909782L92.93333333333334,123.6322460770607L95.19999999999999,123.96678418666124L97.46666666666667,124.47167974710464L99.73333333333332,125.01289338618517L102,125.77698212862015L104.26666666666668,125.82363464683294L106.53333333333333,127.00579573214054L108.80000000000001,126.65136125683784L111.06666666666666,127.29052164405584L113.33333333333334,127.8218351751566L115.6,127.96260668709874L117.86666666666667,128.15378387272358L120.13333333333333,129.22347794100642L122.4,129.58417209610343L124.66666666666666,129.61935295537114L126.93333333333334,130.10530370101333L129.2,130.2249554246664L131.46666666666667,130.63326359540224L133.73333333333332,131.2818997055292L136,130.96744031459093L138.26666666666665,131.5918632671237L140.53333333333336,131.71389718353748L142.8,132.4988587088883L145.06666666666666,132.77407076954842L147.33333333333331,133.6288883984089L149.60000000000002,133.88602928072214L151.86666666666667,134.35443104058504L154.13333333333333,134.24118653684855L156.39999999999998,134.5766314379871L158.66666666666669,134.54288785159588L160.93333333333334,134.51724736765027L163.2,134.30331253260374L165.46666666666664,134.51283276826143L167.73333333333335,134.5078014843166L170,134.74845600128174L172.26666666666665,134.51350415870547L174.53333333333336,134.84862745553255L176.8,134.7703101746738L179.06666666666666,135.14496593549848L181.33333333333331,134.918118853122L183.60000000000002,134.7090428955853L185.86666666666667,134.82200558111072L188.13333333333333,134.85484237596393L190.39999999999998,135.01406966522336L192.66666666666669,134.92588708922267L194.93333333333334,135.38681403547525L197.2,135.10955464839935L199.46666666666664,134.95431923121214L201.73333333333335,135.23048781603575L204,135.2353632710874L206.26666666666665,135.112117536366L208.53333333333336,135.3658086322248L210.8,135.30527739599347L213.06666666666666,134.86062959581614L215.33333333333331,135.39086724445224L217.60000000000002,135.1916532665491L219.86666666666667,135.05851239711046L222.13333333333333,135.1408149190247L224.39999999999998,135.65859620273113L226.66666666666669,135.25698038563132L228.93333333333334,135.333492372185L231.2,135.2914799079299L233.46666666666664,134.93198265135288L235.73333333333335,135.18332305178046L238,135.4418929181993L240.26666666666665,135.13172047957778L242.53333333333336,135.23340049013495L244.8,135.4160767123103L247.06666666666666,135.37863467633724" style="fill: none;" fill="none"></path></g></g></g></g></g></g><g transform="translate(58, 178)" clip-path="url(#clip_1)"><clipPath id="clip_1"><rect width="272" height="22"></rect></clipPath><g><g><line x1="0" y1="0" x2="0" y2="5" style="visibility: inherit;" fill="rgb(0, 0, 0)" stroke="rgb(204, 204, 204)" stroke-width="1px"></line><line x1="22.666666666666664" y1="0" x2="22.666666666666664" y2="5" style="visibility: inherit;" fill="rgb(0, 0, 0)" stroke="rgb(204, 204, 204)" stroke-width="1px"></line><line x1="45.33333333333333" y1="0" x2="45.33333333333333" y2="5" style="visibility: inherit;" fill="rgb(0, 0, 0)" stroke="rgb(204, 204, 204)" stroke-width="1px"></line><line x1="68" y1="0" x2="68" y2="5" style="visibility: inherit;" fill="rgb(0, 0, 0)" stroke="rgb(204, 204, 204)" stroke-width="1px"></line><line x1="90.66666666666666" y1="0" x2="90.66666666666666" y2="5" style="visibility: inherit;" fill="rgb(0, 0, 0)" stroke="rgb(204, 204, 204)" stroke-width="1px"></line><line x1="113.33333333333334" y1="0" x2="113.33333333333334" y2="5" style="visibility: inherit;" fill="rgb(0, 0, 0)" stroke="rgb(204, 204, 204)" stroke-width="1px"></line><line x1="136" y1="0" x2="136" y2="5" style="visibility: inherit;" fill="rgb(0, 0, 0)" stroke="rgb(204, 204, 204)" stroke-width="1px"></line><line x1="158.66666666666669" y1="0" x2="158.66666666666669" y2="5" style="visibility: inherit;" fill="rgb(0, 0, 0)" stroke="rgb(204, 204, 204)" stroke-width="1px"></line><line x1="181.33333333333331" y1="0" x2="181.33333333333331" y2="5" style="visibility: inherit;" fill="rgb(0, 0, 0)" stroke="rgb(204, 204, 204)" stroke-width="1px"></line><line x1="204" y1="0" x2="204" y2="5" style="visibility: inherit;" fill="rgb(0, 0, 0)" stroke="rgb(204, 204, 204)" stroke-width="1px"></line><line x1="226.66666666666669" y1="0" x2="226.66666666666669" y2="5" style="visibility: inherit;" fill="rgb(0, 0, 0)" stroke="rgb(204, 204, 204)" stroke-width="1px"></line><line x1="249.33333333333331" y1="0" x2="249.33333333333331" y2="5" style="visibility: inherit;" fill="rgb(0, 0, 0)" stroke="rgb(204, 204, 204)" stroke-width="1px"></line><line x1="272" y1="0" x2="272" y2="5" style="visibility: inherit;" fill="rgb(0, 0, 0)" stroke="rgb(204, 204, 204)" stroke-width="1px"></line></g><g transform="translate(0, 8)"><text x="0" y="0" dx="0em" dy="0.95em" style="text-anchor: middle; visibility: hidden; font-family: &quot;Helvetica Neue&quot;, sans-serif; font-size: 12px; font-weight: 200;" fill="rgb(50, 49, 63)" stroke="none" stroke-width="1px">-10</text><text x="22.666666666666664" y="0" dx="0em" dy="0.95em" style="text-anchor: middle; visibility: inherit; font-family: &quot;Helvetica Neue&quot;, sans-serif; font-size: 12px; font-weight: 200;" fill="rgb(50, 49, 63)" stroke="none" stroke-width="1px">0</text><text x="45.33333333333333" y="0" dx="0em" dy="0.95em" style="text-anchor: middle; visibility: inherit; font-family: &quot;Helvetica Neue&quot;, sans-serif; font-size: 12px; font-weight: 200;" fill="rgb(50, 49, 63)" stroke="none" stroke-width="1px">10</text><text x="68" y="0" dx="0em" dy="0.95em" style="text-anchor: middle; visibility: inherit; font-family: &quot;Helvetica Neue&quot;, sans-serif; font-size: 12px; font-weight: 200;" fill="rgb(50, 49, 63)" stroke="none" stroke-width="1px">20</text><text x="90.66666666666666" y="0" dx="0em" dy="0.95em" style="text-anchor: middle; visibility: inherit; font-family: &quot;Helvetica Neue&quot;, sans-serif; font-size: 12px; font-weight: 200;" fill="rgb(50, 49, 63)" stroke="none" stroke-width="1px">30</text><text x="113.33333333333334" y="0" dx="0em" dy="0.95em" style="text-anchor: middle; visibility: inherit; font-family: &quot;Helvetica Neue&quot;, sans-serif; font-size: 12px; font-weight: 200;" fill="rgb(50, 49, 63)" stroke="none" stroke-width="1px">40</text><text x="136" y="0" dx="0em" dy="0.95em" style="text-anchor: middle; visibility: inherit; font-family: &quot;Helvetica Neue&quot;, sans-serif; font-size: 12px; font-weight: 200;" fill="rgb(50, 49, 63)" stroke="none" stroke-width="1px">50</text><text x="158.66666666666669" y="0" dx="0em" dy="0.95em" style="text-anchor: middle; visibility: inherit; font-family: &quot;Helvetica Neue&quot;, sans-serif; font-size: 12px; font-weight: 200;" fill="rgb(50, 49, 63)" stroke="none" stroke-width="1px">60</text><text x="181.33333333333331" y="0" dx="0em" dy="0.95em" style="text-anchor: middle; visibility: inherit; font-family: &quot;Helvetica Neue&quot;, sans-serif; font-size: 12px; font-weight: 200;" fill="rgb(50, 49, 63)" stroke="none" stroke-width="1px">70</text><text x="204" y="0" dx="0em" dy="0.95em" style="text-anchor: middle; visibility: inherit; font-family: &quot;Helvetica Neue&quot;, sans-serif; font-size: 12px; font-weight: 200;" fill="rgb(50, 49, 63)" stroke="none" stroke-width="1px">80</text><text x="226.66666666666669" y="0" dx="0em" dy="0.95em" style="text-anchor: middle; visibility: inherit; font-family: &quot;Helvetica Neue&quot;, sans-serif; font-size: 12px; font-weight: 200;" fill="rgb(50, 49, 63)" stroke="none" stroke-width="1px">90</text><text x="249.33333333333331" y="0" dx="0em" dy="0.95em" style="text-anchor: middle; visibility: inherit; font-family: &quot;Helvetica Neue&quot;, sans-serif; font-size: 12px; font-weight: 200;" fill="rgb(50, 49, 63)" stroke="none" stroke-width="1px">100</text><text x="272" y="0" dx="0em" dy="0.95em" style="text-anchor: middle; visibility: hidden; font-family: &quot;Helvetica Neue&quot;, sans-serif; font-size: 12px; font-weight: 200;" fill="rgb(50, 49, 63)" stroke="none" stroke-width="1px">110</text></g><line x1="0" y1="0" x2="272" y2="0" fill="rgb(0, 0, 0)" stroke="rgb(204, 204, 204)" stroke-width="1px"></line></g></g></g></g></svg>