<svg viewBox="0 0 330 200" xmlns="http://www.w3.org/2000/svg"><g><g><g><g><g><line x1="58" y1="178" x2="53" y2="178" style="visibility: inherit;" fill="rgb(0, 0, 0)" stroke="rgb(204, 204, 204)" stroke-width="1px"></line><line x1="58" y1="161.8181818181818" x2="53" y2="161.8181818181818" style="visibility: inherit;" fill="rgb(0, 0, 0)" stroke="rgb(204, 204, 204)" stroke-width="1px"></line><line x1="58" y1="145.63636363636363" x2="53" y2="145.63636363636363" style="visibility: inherit;" fill="rgb(0, 0, 0)" stroke="rgb(204, 204, 204)" stroke-width="1px"></line><line x1="58" y1="129.45454545454544" x2="53" y2="129.45454545454544" style="visibility: inherit;" fill="rgb(0, 0, 0)" stroke="rgb(204, 204, 204)" stroke-width="1px"></line><line x1="58" y1="113.27272727272727" x2="53" y2="113.27272727272727" style="visibility: inherit;" fill="rgb(0, 0, 0)" stroke="rgb(204, 204, 204)" stroke-width="1px"></line><line x1="58" y1="97.0909090909091" x2="53" y2="97.0909090909091" style="visibility: inherit;" fill="rgb(0, 0, 0)" stroke="rgb(204, 204, 204)" stroke-width="1px"></line><line x1="58" y1="80.90909090909092" x2="53" y2="80.90909090909092" style="visibility: inherit;" fill="rgb(0, 0, 0)" stroke="rgb(204, 204, 204)" stroke-width="1px"></line><line x1="58" y1="64.72727272727275" x2="53" y2="64.72727272727275" style="visibility: inherit;" fill="rgb(0, 0, 0)" stroke="rgb(204, 204, 204)" stroke-width="1px"></line><line x1="58" y1="48.54545454545456" x2="53" y2="48.54545454545456" style="visibility: inherit;" fill="rgb(0, 0, 0)" stroke="rgb(204, 204, 204)" stroke-width="1px"></line><line x1="58" y1="32.363636363636374" x2="53" y2="32.363636363636374" style="visibility: inherit;" fill="rgb(0, 0, 0)" stroke="rgb(204, 204, 204)" stroke-width="1px"></line><line x1="58" y1="16.181818181818187" x2="53" y2="16.181818181818187" style="visibility: inherit;" fill="rgb(0, 0, 0)" stroke="rgb(204, 204, 204)" stroke-width="1px"></line><line x1="58" y1="0" x2="53" y2="0" style="visibility: inherit;" fill="rgb(0, 0, 0)" stroke="rgb(204, 204, 204)" stroke-width="1px"></line></g><g transform="translate(48, 0)"><text x="0" y="178" dx="0em" dy="0.3em" style="text-anchor: end; visibility: hidden; font-family: &quot;Helvetica Neue&quot;, sans-serif; font-size: 12px; font-weight: 200;" fill="rgb(50, 49, 63)" stroke="none" stroke-width="1px">-0.1</text><text x="0" y="161.8181818181818" dx="0em" dy="0.3em" style="text-anchor: end; visibility: inherit; font-family: &quot;Helvetica Neue&quot;, sans-serif; font-size: 12px; font-weight: 200;" fill="rgb(50, 49, 63)" stroke="none" stroke-width="1px">0</text><text x="0" y="145.63636363636363" dx="0em" dy="0.3em" style="text-anchor: end; visibility: hidden; font-family: &quot;Helvetica Neue&quot;, sans-serif; font-size: 12px; font-weight: 200;" fill="rgb(50, 49, 63)" stroke="none" stroke-width="1px">0.1</text><text x="0" y="129.45454545454544" dx="0em" dy="0.3em" style="text-anchor: end; visibility: inherit; font-family: &quot;Helvetica Neue&quot;, sans-serif; font-size: 12px; font-weight: 200;" fill="rgb(50, 49, 63)" stroke="none" stroke-width="1px">0.2</text><text x="0" y="113.27272727272727" dx="0em" dy="0.3em" style="text-anchor: end; visibility: hidden; font-family: &quot;Helvetica Neue&quot;, sans-serif; font-size: 12px; font-weight: 200;" fill="rgb(50, 49, 63)" stroke="none" stroke-width="1px">0.3</text><text x="0" y="97.0909090909091" dx="0em" dy="0.3em" style="text-anchor: end; visibility: inherit; font-family: &quot;Helvetica Neue&quot;, sans-serif; font-size: 12px; font-weight: 200;" fill="rgb(50, 49, 63)" stroke="none" stroke-width="1px">0.4</text><text x="0" y="80.90909090909092" dx="0em" dy="0.3em" style="text-anchor: end; visibility: hidden; font-family: &quot;Helvetica Neue&quot;, sans-serif; font-size: 12px; font-weight: 200;" fill="rgb(50, 49, 63)" stroke="none" stroke-width="1px">0.5</text><text x="0" y="64.72727272727275" dx="0em" dy="0.3em" style="text-anchor: end; visibility: inherit; font-family: &quot;Helvetica Neue&quot;, sans-serif; font-size: 12px; font-weight: 200;" fill="rgb(50, 49, 63)" stroke="none" stroke-width="1px">0.6</text><text x="0" y="48.54545454545456" dx="0em" dy="0.3em" style="text-anchor: end; visibility: hidden; font-family: &quot;Helvetica Neue&quot;, sans-serif; font-size: 12px; font-weight: 200;" fill="rgb(50, 49, 63)" stroke="none" stroke-width="1px">0.7</text><text x="0" y="32.363636363636374" dx="0em" dy="0.3em" style="text-anchor: end; visibility: inherit; font-family: &quot;Helvetica Neue&quot;, sans-serif; font-size: 12px; font-weight: 200;" fill="rgb(50, 49, 63)" stroke="none" stroke-width="1px">0.8</text><text x="0" y="16.181818181818187" dx="0em" dy="0.3em" style="text-anchor: end; visibility: hidden; font-family: &quot;Helvetica Neue&quot;, sans-serif; font-size: 12px; font-weight: 200;" fill="rgb(50, 49, 63)" stroke="none" stroke-width="1px">0.9</text><text x="0" y="0" dx="0em" dy="0.3em" style="text-anchor: end; visibility: hidden; font-family: &quot;Helvetica Neue&quot;, sans-serif; font-size: 12px; font-weight: 200;" fill="rgb(50, 49, 63)" stroke="none" stroke-width="1px">1</text></g><line x1="58" y1="0" x2="58" y2="178" fill="rgb(0, 0, 0)" stroke="rgb(204, 204, 204)" stroke-width="1px"></line></g></g><g transform="translate(58, 0)" clip-path="url(#clip_0)"><clipPath id="clip_0"><rect width="272" height="178"></rect></clipPath><g><g><g><line x1="0" y1="0" x2="0" y2="178" fill="rgb(0, 0, 0)" stroke="rgb(60, 60, 60)" stroke-width="1px" opacity="0.25"></line><line x1="22.666666666666664" y1="0" x2="22.666666666666664" y2="178" fill="rgb(0, 0, 0)" stroke="rgb(60, 60, 60)" stroke-width="1px" opacity="0.25"></line><line x1="45.33333333333333" y1="0" x2="45.33333333333333" y2="178" fill="rgb(0, 0, 0)" stroke="rgb(60, 60, 60)" stroke-width="1px" opacity="0.25"></line><line x1="68" y1="0" x2="68" y2="178" fill="rgb(0, 0, 0)" stroke="rgb(60, 60, 60)" stroke-width="1px" opacity="0.25"></line><line x1="90.66666666666666" y1="0" x2="90.66666666666666" y2="178" fill="rgb(0, 0, 0)" stroke="rgb(60, 60, 60)" stroke-width="1px" opacity="0.25"></line><line x1="113.33333333333334" y1="0" x2="113.33333333333334" y2="178" fill="rgb(0, 0, 0)" stroke="rgb(60, 60, 60)" stroke-width="1px" opacity="0.25"></line><line x1="136" y1="0" x2="136" y2="178" fill="rgb(0, 0, 0)" stroke="rgb(60, 60, 60)" stroke-width="1px" opacity="0.25"></line><line x1="158.66666666666669" y1="0" x2="158.66666666666669" y2="178" fill="rgb(0, 0, 0)" stroke="rgb(60, 60, 60)" stroke-width="1px" opacity="0.25"></line><line x1="181.33333333333331" y1="0" x2="181.33333333333331" y2="178" fill="rgb(0, 0, 0)" stroke="rgb(60, 60, 60)" stroke-width="1px" opacity="0.25"></line><line x1="204" y1="0" x2="204" y2="178" fill="rgb(0, 0, 0)" stroke="rgb(60, 60, 60)" stroke-width="1px" opacity="0.25"></line><line x1="226.66666666666669" y1="0" x2="226.66666666666669" y2="178" fill="rgb(0, 0, 0)" stroke="rgb(60, 60, 60)" stroke-width="1px" opacity="0.25"></line><line x1="249.33333333333331" y1="0" x2="249.33333333333331" y2="178" fill="rgb(0, 0, 0)" stroke="rgb(60, 60, 60)" stroke-width="1px" opacity="0.25"></line><line x1="272" y1="0" x2="272" y2="178" fill="rgb(0, 0, 0)" stroke="rgb(60, 60, 60)" stroke-width="1px" opacity="0.25"></line></g><g><line x1="0" y1="178" x2="272" y2="178" fill="rgb(0, 0, 0)" stroke="rgb(60, 60, 60)" stroke-width="1px" opacity="0.25"></line><line x1="0" y1="161.8181818181818" x2="272" y2="161.8181818181818" fill="rgb(0, 0, 0)" stroke="rgb(60, 60, 60)" stroke-width="1px" opacity="0.25"></line><line x1="0" y1="145.63636363636363" x2="272" y2="145.63636363636363" fill="rgb(0, 0, 0)" stroke="rgb(60, 60, 60)" stroke-width="1px" opacity="0.25"></line><line x1="0" y1="129.45454545454544" x2="272" y2="129.45454545454544" fill="rgb(0, 0, 0)" stroke="rgb(60, 60, 60)" stroke-width="1px" opacity="0.25"></line><line x1="0" y1="113.27272727272727" x2="272" y2="113.27272727272727" fill="rgb(0, 0, 0)" stroke="rgb(60, 60, 60)" stroke-width="1px" opacity="0.25"></line><line x1="0" y1="97.0909090909091" x2="272" y2="97.0909090909091" fill="rgb(0, 0, 0)" stroke="rgb(60, 60, 60)" stroke-width="1px" opacity="0.25"></line><line x1="0" y1="80.90909090909092" x2="272" y2="80.90909090909092" fill="rgb(0, 0, 0)" stroke="rgb(60, 60, 60)" stroke-width="1px" opacity="0.25"></line><line x1="0" y1="64.72727272727275" x2="272" y2="64.72727272727275" fill="rgb(0, 0, 0)" stroke="rgb(60, 60, 60)" stroke-width="1px" opacity="0.25"></line><line x1="0" y1="48.54545454545456" x2="272" y2="48.54545454545456" fill="rgb(0, 0, 0)" stroke="rgb(60, 60, 60)" stroke-width="1px" opacity="0.25"></line><line x1="0" y1="32.363636363636374" x2="272" y2="32.363636363636374" fill="rgb(0, 0, 0)" stroke="rgb(60, 60, 60)" stroke-width="1px" opacity="0.25"></line><line x1="0" y1="16.181818181818187" x2="272" y2="16.181818181818187" fill="rgb(0, 0, 0)" stroke="rgb(60, 60, 60)" stroke-width="1px" opacity="0.25"></line><line x1="0" y1="0" x2="272" y2="0" fill="rgb(0, 0, 0)" stroke="rgb(60, 60, 60)" stroke-width="1px" opacity="0.25"></line></g></g></g><g><g><line x1="0" y1="161.8181818181818" x2="272" y2="161.8181818181818" fill="rgb(0, 0, 0)" stroke="rgb(153, 153, 153)" stroke-width="1.5px"></line></g></g><g><g><line x1="22.666666666666664" y1="0" x2="22.666666666666664" y2="178" fill="rgb(0, 0, 0)" stroke="rgb(153, 153, 153)" stroke-width="1.5px"></line></g></g><g><g><g><g><g><path stroke="rgb(0, 119, 187)" stroke-width="2px" d="M22.666666666666664,119.2094336314635L24.93333333333333,111.73713377930902L27.200000000000003,107.42241238839995L29.46666666666667,106.47822866066893L31.733333333333334,101.68790790859619L34,95.15350463764938L36.266666666666666,90.27624361221643L38.53333333333333,85.8023873140615L40.8,83.0283780436775L43.06666666666666,88.358336388143L45.33333333333333,83.19620213216743L47.599999999999994,79.00357108587306L49.86666666666666,76.51159192739229L52.13333333333334,75.5064513258909L54.400000000000006,72.95144556792282L56.66666666666667,78.08629298409198L58.93333333333334,80.34404710446611L61.2,73.20210319676093L63.46666666666667,70.42790661258337L65.73333333333333,63.43219596701363L68,58.63219294677201L70.26666666666668,54.72691912498392L72.53333333333333,54.9901152120072L74.80000000000001,52.58992651508423L77.06666666666666,61.166625312036714L79.33333333333334,57.30908373070973L81.6,55.05092138836956L83.86666666666667,63.36423319265347L86.13333333333333,56.013339985524865L88.4,52.00776183485378L90.66666666666666,49.24919744371954L92.93333333333334,47.13507883652824L95.19999999999999,45.717567593960894L97.46666666666667,44.85517039332612L99.73333333333332,43.993710112269355L102,43.34251993486538L104.26666666666668,42.567251227458684L106.53333333333333,41.6939125854274L108.80000000000001,41.39759585132205L111.06666666666666,41.048010876345415L113.33333333333334,40.86548226494921L115.6,40.45867949792006L117.86666666666667,40.28888065742382L120.13333333333333,40.25775791861051L122.4,39.82017377189496L124.66666666666666,39.61188284422306L126.93333333333334,39.76756956714371L129.2,39.358309058655834L131.46666666666667,38.99298357049523L133.73333333333332,39.23490194726122L136,39.05133587161404L138.26666666666665,39.00309857587189L140.53333333333336,39.003392471758815L142.8,39.03084519520522L145.06666666666666,39.28173942629135L147.33333333333331,38.90528615816058L149.60000000000002,38.67862715587819L151.86666666666667,38.618415354015525L154.13333333333333,38.334586281209795L156.39999999999998,38.15616379244361L158.66666666666669,38.05634027757188L160.93333333333334,37.95612958692277L163.2,37.8874768906563L165.46666666666664,37.83221883682242L167.73333333333335,37.79362415952366L170,37.8243642571361L172.26666666666665,37.769142783504776L174.53333333333336,37.76136883632935L176.8,37.68686225950856L179.06666666666666,37.61966590466366L181.33333333333331,37.58328715682299L183.60000000000002,37.62125962264048L185.86666666666667,37.63461789551312L188.13333333333333,37.565579962563675L190.39999999999998,37.560368823471606L192.66666666666669,37.618330441935086L194.93333333333334,37.66273323802815L197.2,37.678861740066424L199.46666666666664,37.66655183657582L201.73333333333335,37.635944315016445L204,37.633239611193375L206.26666666666665,37.63428655679948L208.53333333333336,37.644590703777396L210.8,37.65642522949801L213.06666666666666,37.66079444829285L215.33333333333331,37.665422163540796L217.60000000000002,37.671343100259605L219.86666666666667,37.672179597837754L222.13333333333333,37.67868461611346L224.39999999999998,37.67942402927835L226.66666666666669,37.68906525907536L228.93333333333334,37.68762387661164L231.2,37.70101066942013L233.46666666666664,37.70541232372685L235.73333333333335,37.69892132119645L238,37.696708827777L240.26666666666665,37.68928176084415L242.53333333333336,37.692356426668084L244.8,37.68994194327004L247.06666666666666,37.69602801726097" style="fill: none;" fill="none"></path></g><g><path stroke="rgb(255, 112, 67)" stroke-width="2px" d="M22.666666666666664,127.05816786397588L24.93333333333333,145.41476966051215L27.200000000000003,145.7829895813246L29.46666666666667,132.08828895410056L31.733333333333334,117.53689982013935L34,106.55321137855856L36.266666666666666,97.93293782260702L38.53333333333333,89.80995922139476L40.8,84.54451370780775L43.06666666666666,79.71005995081387L45.33333333333333,75.50779968400559L47.599999999999994,72.25608831628736L49.86666666666666,68.88442190860599L52.13333333333334,66.07520940999092L54.400000000000006,63.224660800918144L56.66666666666667,60.887864143070715L58.93333333333334,58.71989747126953L61.2,56.53303828207699L63.46666666666667,54.58521246014854L65.73333333333333,52.81946902275291L68,50.715494673057634L70.26666666666668,48.71488119057966L72.53333333333333,46.8445981066437L74.80000000000001,45.16227762590873L77.06666666666666,43.382968854870825L79.33333333333334,41.599525155126116L81.6,39.87050593430317L83.86666666666667,38.37836665176681L86.13333333333333,35.469043973685984L88.4,32.622757973835746L90.66666666666666,30.81279483803499L92.93333333333334,29.38533756483261L95.19999999999999,28.400139559406483L97.46666666666667,27.65612641500786L99.73333333333332,27.034578678327307L102,26.354522564250914L104.26666666666668,25.960439595071676L106.53333333333333,25.27302280503315L108.80000000000001,25.022934745001578L111.06666666666666,24.616993143488656L113.33333333333334,24.179881584165145L115.6,23.88029191082353L117.86666666666667,23.646513887382355L120.13333333333333,23.109524193015318L122.4,22.652078854376384L124.66666666666666,22.395744467886033L126.93333333333334,22.06387571833352L129.2,21.824650079418376L131.46666666666667,21.53517638631456L133.73333333333332,21.122621246283472L136,21.005177618652425L138.26666666666665,20.724316756154934L140.53333333333336,20.50131305361208L142.8,20.078685927037668L145.06666666666666,19.74149807605329L147.33333333333331,19.24600472636908L149.60000000000002,18.850571597959032L151.86666666666667,18.447967439282962L154.13333333333333,18.250124322462028L156.39999999999998,17.99326567963945L158.66666666666669,17.85901557330547L160.93333333333334,17.791497989224723L163.2,17.834626020138955L165.46666666666664,17.79340755899389L167.73333333333335,17.756311444562186L170,17.665137498451173L172.26666666666665,17.68498987163207L174.53333333333336,17.558196822218548L176.8,17.534829618363858L179.06666666666666,17.34888318777746L181.33333333333331,17.349758082957322L183.60000000000002,17.434427005466773L185.86666666666667,17.43922887534373L188.13333333333333,17.42299337885339L190.39999999999998,17.3500958663318L192.66666666666669,17.341399991528704L194.93333333333334,17.175572007579262L197.2,17.187730929337278L199.46666666666664,17.246288140898685L201.73333333333335,17.168617057970607L204,17.129661055580385L206.26666666666665,17.150797731981044L208.53333333333336,17.0687492739265L210.8,17.040156887672993L213.06666666666666,17.199642096526503L215.33333333333331,17.078430012152296L217.60000000000002,17.084426192161345L219.86666666666667,17.157680922469552L222.13333333333333,17.16557646182079L224.39999999999998,16.96763519170929L226.66666666666669,16.99944996885472L228.93333333333334,17.00368921571004L231.2,17.029381040412346L233.46666666666664,17.18248594243201L235.73333333333335,17.173538139098127L238,17.058076253639882L240.26666666666665,17.111762767606393L242.53333333333336,17.08915569897715L244.8,17.005571779163574L247.06666666666666,16.980822802785923" style="fill: none;" fill="none"></path></g></g></g></g><g opacity="0.2"><g><g><g><path stroke="rgb(0, 119, 187)" stroke-width="2px" d="M22.666666666666664,119.2094336314635L24.93333333333333,107.25375386801635L27.200000000000003,103.28027985312723L29.46666666666667,105.36786859685725L31.733333333333334,95.43366513469003L34,86.11407252875243L36.266666666666666,83.30168230967088L38.53333333333333,79.27946188233118L40.8,78.9372531934218L43.06666666666666,96.27270335500891L45.33333333333333,75.4998209259727L47.599999999999994,72.73744062943894L49.86666666666666,72.78175993399186L52.13333333333334,74.00070959871466L54.400000000000006,69.1219402443279L56.66666666666667,85.78494261611593L58.93333333333334,83.72972287914972L61.2,62.49100067398767L63.46666666666667,66.26703435724433L65.73333333333333,52.939269434322014L68,51.43245165998286L70.26666666666668,48.8691368970004L72.53333333333333,55.38490414619447L74.80000000000001,48.98967190222308L77.06666666666666,74.03161254796116L79.33333333333334,51.52278780937196L81.6,51.66368365287782L83.86666666666667,75.83418813618748L86.13333333333333,44.98700694604355L88.4,45.9993968226693L90.66666666666666,45.11135177178818L92.93333333333334,43.963901346380084L95.19999999999999,43.591300899332225L97.46666666666667,43.56157465414569L99.73333333333332,42.70151972770694L102,42.36573468555105L104.26666666666668,41.404348178343355L106.53333333333333,40.38390463048762L108.80000000000001,40.953120751814424L111.06666666666666,40.52363341504878L113.33333333333334,40.591689348220854L115.6,39.84847534786573L117.86666666666667,40.03418239680204L120.13333333333333,40.211073810404L122.4,39.163797551935374L124.66666666666666,39.2994464527477L126.93333333333334,40.00109965151009L129.2,38.744418295946986L131.46666666666667,38.44499533826655L133.73333333333332,39.597779512405424L136,38.77598675814542L138.26666666666665,38.93074263225904L140.53333333333336,39.00383331558922L142.8,39.072024280374706L145.06666666666666,39.6580807729201L147.33333333333331,38.340606255964815L149.60000000000002,38.33863865245473L151.86666666666667,38.52809765122154L154.13333333333333,37.90884267200124L156.39999999999998,37.88853005929428L158.66666666666669,37.90660500526431L160.93333333333334,37.805813550949125L163.2,37.78449784625661L165.46666666666664,37.749331756071626L167.73333333333335,37.73573214357552L170,37.870474403554766L172.26666666666665,37.68631057305771L174.53333333333336,37.749707915566205L176.8,37.57510239427742L179.06666666666666,37.51887137239632L181.33333333333331,37.528719035061926L183.60000000000002,37.67821832136676L185.86666666666667,37.65465530482206L188.13333333333333,37.4620230631395L190.39999999999998,37.5525521148335L192.66666666666669,37.705272869630306L194.93333333333334,37.72933743216777L197.2,37.70305449312386L199.46666666666664,37.6480869813399L201.73333333333335,37.59003303267741L204,37.62918255545878L206.26666666666665,37.63585697520864L208.53333333333336,37.660046924244284L210.8,37.67417701807889L213.06666666666666,37.667348276485114L215.33333333333331,37.67236373641276L217.60000000000002,37.680224505337804L219.86666666666667,37.67343434420499L222.13333333333333,37.68844214352694L224.39999999999998,37.68053314902568L226.66666666666669,37.70352710377088L228.93333333333334,37.68546180291611L231.2,37.72109085863289L233.46666666666664,37.7120148051869L235.73333333333335,37.68918481740084L238,37.693390087647884L240.26666666666665,37.678141160444795L242.53333333333336,37.69696842540395L244.8,37.68632021817294L247.06666666666666,37.70515712824735" style="fill: none;" fill="none"></path></g><g><path stroke="rgb(255, 112, 67)" stroke-width="2px" d="M22.666666666666664,127.05816786397588L24.93333333333333,156.42873073843393L27.200000000000003,146.1364807053046L29.46666666666667,115.98332101648504L31.733333333333334,98.53860616683961L34,91.35881613601339L36.266666666666666,85.60580871321939L38.53333333333333,77.96657844023271L40.8,76.77900433540346L43.06666666666666,72.53145954825663L45.33333333333333,69.2425234751268L47.599999999999994,67.3962169343775L49.86666666666666,63.83793137290263L52.13333333333334,61.86689420179887L54.400000000000006,58.95218860019338L56.66666666666667,57.38431724635039L58.93333333333334,55.46886487440632L61.2,53.253304741599365L63.46666666666667,51.66377045891504L65.73333333333333,50.171015262603774L68,47.55964853546837L70.26666666666668,45.71402679790151L72.53333333333333,44.03921040621671L74.80000000000001,42.63881683349612L77.06666666666666,40.71401834487918L79.33333333333334,38.92436721108177L81.6,37.2769815271551L83.86666666666667,36.14016001874751L86.13333333333333,31.105062636462122L88.4,28.353330547159402L90.66666666666666,28.09785073453733L92.93333333333334,27.24415193904531L95.19999999999999,26.922342668880134L97.46666666666667,26.54010675170207L99.73333333333332,26.10225710001859L102,25.334438410672277L104.26666666666668,25.36931514739993L106.53333333333333,24.24189762635666L108.80000000000001,24.647802656347125L111.06666666666666,24.008080742575913L113.33333333333334,23.524214246056317L115.6,23.430907401171595L117.86666666666667,23.295846852389246L120.13333333333333,22.304039651697366L122.4,21.965910846536843L124.66666666666666,22.011242888190537L126.93333333333334,21.566072594035774L129.2,21.46581162105909L131.46666666666667,21.1009658466686L133.73333333333332,20.503788536245196L136,20.82901217720726L138.26666666666665,20.303025462410687L140.53333333333336,20.166807499798864L142.8,19.444745237177102L145.06666666666666,19.235716299577206L147.33333333333331,18.50276470184329L149.60000000000002,18.257421905344216L151.86666666666667,17.844061201269L154.13333333333333,17.953359647230684L156.39999999999998,17.607977715405553L158.66666666666669,17.6576404138045L160.93333333333334,17.690221613103716L163.2,17.89931806651029L165.46666666666664,17.73157986727628L167.73333333333335,17.700667272914558L170,17.528376579284696L172.26666666666665,17.714768431403428L174.53333333333336,17.368007248098223L176.8,17.499778812581866L179.06666666666666,17.069963541897863L181.33333333333331,17.35107042572716L183.60000000000002,17.561430389230935L185.86666666666667,17.44643168015915L188.13333333333333,17.39864013411784L190.39999999999998,17.240749597549467L192.66666666666669,17.32835617932406L194.93333333333334,16.926830031655072L197.2,17.205969311974286L199.46666666666664,17.334123958240866L201.73333333333335,17.05211043357852L204,17.071227051995038L206.26666666666665,17.18250274658206L208.53333333333336,16.945676586844712L210.8,16.997268308292746L213.06666666666666,17.438869909806698L215.33333333333331,16.896611885591L217.60000000000002,17.093420462174862L219.86666666666667,17.26756301793185L222.13333333333333,17.177419770847678L224.39999999999998,16.670723286542028L226.66666666666669,17.047172134572833L228.93333333333334,17.01004808599302L231.2,17.06791877746585L233.46666666666664,17.412143295461505L235.73333333333335,17.16011643409732L238,16.8848834254525L240.26666666666665,17.192292538556188L242.53333333333336,17.055245096033303L244.8,16.88019589944321L247.06666666666666,16.943699338219403" style="fill: none;" fill="none"></path></g></g></g></g></g></g><g transform="translate(58, 178)" clip-path="url(#clip_1)"><clipPath id="clip_1"><rect width="272" height="22"></rect></clipPath><g><g><line x1="0" y1="0" x2="0" y2="5" style="visibility: inherit;" fill="rgb(0, 0, 0)" stroke="rgb(204, 204, 204)" stroke-width="1px"></line><line x1="22.666666666666664" y1="0" x2="22.666666666666664" y2="5" style="visibility: inherit;" fill="rgb(0, 0, 0)" stroke="rgb(204, 204, 204)" stroke-width="1px"></line><line x1="45.33333333333333" y1="0" x2="45.33333333333333" y2="5" style="visibility: inherit;" fill="rgb(0, 0, 0)" stroke="rgb(204, 204, 204)" stroke-width="1px"></line><line x1="68" y1="0" x2="68" y2="5" style="visibility: inherit;" fill="rgb(0, 0, 0)" stroke="rgb(204, 204, 204)" stroke-width="1px"></line><line x1="90.66666666666666" y1="0" x2="90.66666666666666" y2="5" style="visibility: inherit;" fill="rgb(0, 0, 0)" stroke="rgb(204, 204, 204)" stroke-width="1px"></line><line x1="113.33333333333334" y1="0" x2="113.33333333333334" y2="5" style="visibility: inherit;" fill="rgb(0, 0, 0)" stroke="rgb(204, 204, 204)" stroke-width="1px"></line><line x1="136" y1="0" x2="136" y2="5" style="visibility: inherit;" fill="rgb(0, 0, 0)" stroke="rgb(204, 204, 204)" stroke-width="1px"></line><line x1="158.66666666666669" y1="0" x2="158.66666666666669" y2="5" style="visibility: inherit;" fill="rgb(0, 0, 0)" stroke="rgb(204, 204, 204)" stroke-width="1px"></line><line x1="181.33333333333331" y1="0" x2="181.33333333333331" y2="5" style="visibility: inherit;" fill="rgb(0, 0, 0)" stroke="rgb(204, 204, 204)" stroke-width="1px"></line><line x1="204" y1="0" x2="204" y2="5" style="visibility: inherit;" fill="rgb(0, 0, 0)" stroke="rgb(204, 204, 204)" stroke-width="1px"></line><line x1="226.66666666666669" y1="0" x2="226.66666666666669" y2="5" style="visibility: inherit;" fill="rgb(0, 0, 0)" stroke="rgb(204, 204, 204)" stroke-width="1px"></line><line x1="249.33333333333331" y1="0" x2="249.33333333333331" y2="5" style="visibility: inherit;" fill="rgb(0, 0, 0)" stroke="rgb(204, 204, 204)" stroke-width="1px"></line><line x1="272" y1="0" x2="272" y2="5" style="visibility: inherit;" fill="rgb(0, 0, 0)" stroke="rgb(204, 204, 204)" stroke-width="1px"></line></g><g transform="translate(0, 8)"><text x="0" y="0" dx="0em" dy="0.95em" style="text-anchor: middle; visibility: hidden; font-family: &quot;Helvetica Neue&quot;, sans-serif; font-size: 12px; font-weight: 200;" fill="rgb(50, 49, 63)" stroke="none" stroke-width="1px">-10</text><text x="22.666666666666664" y="0" dx="0em" dy="0.95em" style="text-anchor: middle; visibility: inherit; font-family: &quot;Helvetica Neue&quot;, sans-serif; font-size: 12px; font-weight: 200;" fill="rgb(50, 49, 63)" stroke="none" stroke-width="1px">0</text><text x="45.33333333333333" y="0" dx="0em" dy="0.95em" style="text-anchor: middle; visibility: inherit; font-family: &quot;Helvetica Neue&quot;, sans-serif; font-size: 12px; font-weight: 200;" fill="rgb(50, 49, 63)" stroke="none" stroke-width="1px">10</text><text x="68" y="0" dx="0em" dy="0.95em" style="text-anchor: middle; visibility: inherit; font-family: &quot;Helvetica Neue&quot;, sans-serif; font-size: 12px; font-weight: 200;" fill="rgb(50, 49, 63)" stroke="none" stroke-width="1px">20</text><text x="90.66666666666666" y="0" dx="0em" dy="0.95em" style="text-anchor: middle; visibility: inherit; font-family: &quot;Helvetica Neue&quot;, sans-serif; font-size: 12px; font-weight: 200;" fill="rgb(50, 49, 63)" stroke="none" stroke-width="1px">30</text><text x="113.33333333333334" y="0" dx="0em" dy="0.95em" style="text-anchor: middle; visibility: inherit; font-family: &quot;Helvetica Neue&quot;, sans-serif; font-size: 12px; font-weight: 200;" fill="rgb(50, 49, 63)" stroke="none" stroke-width="1px">40</text><text x="136" y="0" dx="0em" dy="0.95em" style="text-anchor: middle; visibility: inherit; font-family: &quot;Helvetica Neue&quot;, sans-serif; font-size: 12px; font-weight: 200;" fill="rgb(50, 49, 63)" stroke="none" stroke-width="1px">50</text><text x="158.66666666666669" y="0" dx="0em" dy="0.95em" style="text-anchor: middle; visibility: inherit; font-family: &quot;Helvetica Neue&quot;, sans-serif; font-size: 12px; font-weight: 200;" fill="rgb(50, 49, 63)" stroke="none" stroke-width="1px">60</text><text x="181.33333333333331" y="0" dx="0em" dy="0.95em" style="text-anchor: middle; visibility: inherit; font-family: &quot;Helvetica Neue&quot;, sans-serif; font-size: 12px; font-weight: 200;" fill="rgb(50, 49, 63)" stroke="none" stroke-width="1px">70</text><text x="204" y="0" dx="0em" dy="0.95em" style="text-anchor: middle; visibility: inherit; font-family: &quot;Helvetica Neue&quot;, sans-serif; font-size: 12px; font-weight: 200;" fill="rgb(50, 49, 63)" stroke="none" stroke-width="1px">80</text><text x="226.66666666666669" y="0" dx="0em" dy="0.95em" style="text-anchor: middle; visibility: inherit; font-family: &quot;Helvetica Neue&quot;, sans-serif; font-size: 12px; font-weight: 200;" fill="rgb(50, 49, 63)" stroke="none" stroke-width="1px">90</text><text x="249.33333333333331" y="0" dx="0em" dy="0.95em" style="text-anchor: middle; visibility: inherit; font-family: &quot;Helvetica Neue&quot;, sans-serif; font-size: 12px; font-weight: 200;" fill="rgb(50, 49, 63)" stroke="none" stroke-width="1px">100</text><text x="272" y="0" dx="0em" dy="0.95em" style="text-anchor: middle; visibility: hidden; font-family: &quot;Helvetica Neue&quot;, sans-serif; font-size: 12px; font-weight: 200;" fill="rgb(50, 49, 63)" stroke="none" stroke-width="1px">110</text></g><line x1="0" y1="0" x2="272" y2="0" fill="rgb(0, 0, 0)" stroke="rgb(204, 204, 204)" stroke-width="1px"></line></g></g></g></g></svg>